<svg width="125" height="126" viewBox="0 0 125 126" fill="none" xmlns="http://www.w3.org/2000/svg">
<g clip-path="url(#clip0_806_388)">
<path d="M63.0424 9.43465e-05C38.442 -0.0428717 15.2875 14.5924 4.66109 37.7584L34.5405 37.8297V41.1082C25.3399 39.9974 26.1501 44.791 27.4525 49.8787L47.067 99.1988L61.4837 65.2932L54.8655 49.4036C52.4615 45.1477 52.4107 40.4261 42.5758 40.8707L42.714 37.8495L86.5365 37.9565V41.342C81.4044 41.644 75.2266 40.0474 78.5014 50.5915L96.2254 97.3022L105.914 70.0328C109.087 58.6016 106.101 47.6161 102.331 36.8438C100.234 29.617 101.212 23.5818 110.611 21.1876C96.2643 6.49539 79.3365 0.0285703 63.0429 9.43465e-05H63.0424ZM122.643 43.1236L94.232 117.424C102.078 110.607 110.123 108.125 119.967 89.2601C126.517 73.5691 125.843 59.0331 122.643 43.1235V43.1236ZM1.65379 44.3273C-1.11929 66.262 -0.865602 72.6865 5.99896 90.5986C14.947 107.754 21.8859 111.368 31.7344 118.098L1.65367 44.3273H1.65379ZM64.1515 72.1589L43.0966 123.126C57.8758 127.358 71.0997 126.829 83.2055 122.12L64.1515 72.1588V72.1589Z" fill="white"/>
</g>
<defs>
<clipPath id="clip0_806_388">
<rect width="125" height="126" fill="white"/>
</clipPath>
</defs>
</svg>
