<svg width="32" height="17" viewBox="0 0 32 17" fill="none" xmlns="http://www.w3.org/2000/svg">
<path d="M1 10.375H10.375M16 16V1H21.625C22.6196 1 23.5734 1.39509 24.2766 2.09835C24.9799 2.80161 25.375 3.75544 25.375 4.75V6.625C25.375 7.61956 24.9799 8.57339 24.2766 9.27665C23.5734 9.97991 22.6196 10.375 21.625 10.375H16M31 1V16M10.375 16V5.6875C10.375 4.4443 9.88114 3.25201 9.00206 2.37294C8.12299 1.49386 6.9307 1 5.6875 1C4.4443 1 3.25201 1.49386 2.37294 2.37294C1.49386 3.25201 1 4.4443 1 5.6875V16" stroke="white" stroke-width="2" stroke-linecap="round" stroke-linejoin="round"/>
</svg>
