<svg width="30" height="30" viewBox="0 0 30 30" fill="none" xmlns="http://www.w3.org/2000/svg">
<path d="M12.2023 12.589L11 16H15L13.7746 12.589C13.5307 11.9072 13.3184 11.1582 13.123 10.4726C13.0785 10.315 13.0337 10.1574 12.9884 10H12.9422C12.8623 10.2746 12.7845 10.5679 12.7026 10.8686C12.547 11.4477 12.3852 12.0492 12.2023 12.589Z" fill="white"/>
<path fill-rule="evenodd" clip-rule="evenodd" d="M6.46561 0.47077C12.1379 -0.156923 17.8622 -0.156923 23.5345 0.47077C26.6333 0.81614 29.1316 3.25165 29.4955 6.35672C30.1682 12.0988 30.1682 17.8995 29.4955 23.6415C29.1316 26.7466 26.6333 29.1821 23.5361 29.5291C17.8633 30.157 12.1384 30.157 6.46561 29.5291C3.36678 29.1821 0.868462 26.7466 0.504566 23.6431C-0.168189 17.9006 -0.168189 12.0993 0.504566 6.35672C0.868462 3.25165 3.36678 0.81614 6.46561 0.47077ZM21.4164 11.9739V20.701H19.1906V11.9739H21.4164ZM19.0665 9.53673C19.0665 8.85577 19.5675 8.33608 20.3035 8.33608C21.059 8.33608 21.5241 8.85577 21.5436 9.53673C21.5436 10.1998 21.0574 10.7195 20.2871 10.7195C19.5512 10.7195 19.0665 10.1998 19.0665 9.53673ZM16.033 20.701L14.938 17.2782H11.0984L10.0572 20.701H7.77759L11.6548 8.62281H14.473L18.404 20.701H16.033Z" fill="white"/>
</svg>
