<svg width="52" height="58" viewBox="0 0 52 58" fill="none" xmlns="http://www.w3.org/2000/svg">
<path d="M26 57.2909C25.2208 57.2909 24.4927 57.0813 23.8127 56.7186L16.9022 52.6159C15.868 52.0408 16.3865 51.8311 16.6982 51.7263C18.1035 51.2588 18.3642 51.1568 19.8177 50.3294C19.9763 50.2246 20.1832 50.2728 20.3418 50.3776L25.6402 53.5509C25.8498 53.6529 26.1105 53.6529 26.2663 53.5509L47.0035 41.5461C47.2132 41.4441 47.3152 41.2344 47.3152 40.9738V17.0094C47.3152 16.7516 47.2132 16.5419 47.0035 16.4399L26.2663 4.48612C26.0595 4.38128 25.7988 4.38128 25.6402 4.48612L4.89734 16.4371C4.69051 16.5391 4.58568 16.8026 4.58568 17.0066V40.9681C4.58568 41.1749 4.69051 41.4384 4.89734 41.5405L10.564 44.8186C13.6297 46.3713 15.5563 44.5494 15.5563 42.7361V19.0891C15.5563 18.7774 15.8142 18.4629 16.1797 18.4629H18.8317C19.1377 18.4629 19.455 18.7236 19.455 19.0891V42.7389C19.455 46.8445 17.2223 49.2386 13.3237 49.2386C12.128 49.2386 11.193 49.2386 8.54101 47.9353L3.08684 44.8214C2.42231 44.4351 1.87081 43.8812 1.48746 43.2149C1.10412 42.5486 0.902355 41.7934 0.902344 41.0248V17.0604C0.902344 15.5021 1.73251 14.0458 3.08684 13.2666L23.8155 1.26178C24.4884 0.901907 25.2397 0.713623 26.0028 0.713623C26.7659 0.713623 27.5173 0.901907 28.1902 1.26178L48.9217 13.2666C50.2788 14.0429 51.1062 15.5021 51.1062 17.0604V41.0248C51.1062 42.5803 50.276 44.0366 48.9217 44.8214L28.1902 56.8234C27.5073 57.1351 26.7282 57.2909 26 57.2909ZM32.392 40.8123C23.297 40.8123 21.427 36.6529 21.427 33.1226C21.427 32.8109 21.6877 32.4964 22.0503 32.4964H24.7533C25.065 32.4964 25.3228 32.7033 25.3228 33.0178C25.7393 35.7689 26.9322 37.1233 32.4458 37.1233C36.8092 37.1233 38.6848 36.1316 38.6848 33.7941C38.6848 32.4426 38.1607 31.4566 31.355 30.7823C25.6912 30.2156 22.158 28.9604 22.158 24.4413C22.158 20.2338 25.6912 17.7376 31.6185 17.7376C38.2683 17.7376 41.5437 20.0298 41.9573 25.0136C41.9524 25.1818 41.8971 25.3447 41.7987 25.4811C41.6938 25.5831 41.5408 25.688 41.385 25.688H38.6848C38.5514 25.6851 38.4227 25.6379 38.319 25.5537C38.2154 25.4696 38.1427 25.3533 38.1125 25.2233C37.4863 22.3559 35.877 21.4266 31.6185 21.4266C26.833 21.4266 26.2607 23.0898 26.2607 24.3364C26.2607 25.8409 26.9322 26.3084 33.3837 27.1414C39.7757 27.9716 42.7903 29.1673 42.7903 33.6411C42.7337 38.2169 38.9965 40.8123 32.392 40.8123Z" fill="white"/>
</svg>
