<svg width="320" height="480" viewBox="0 0 320 480" fill="none" xmlns="http://www.w3.org/2000/svg">
<path d="M240 160C261.217 160 281.566 151.571 296.569 136.569C311.571 121.566 320 101.217 320 80C320 58.7827 311.571 38.4344 296.569 23.4315C281.566 8.42855 261.217 0 240 0H80C58.7827 0 38.4344 8.42855 23.4315 23.4315C8.42858 38.4344 3.56145e-05 58.7827 3.56145e-05 80C3.56145e-05 101.217 8.42858 121.566 23.4315 136.569C38.4344 151.571 58.7827 160 80 160C58.7827 160 38.4344 168.429 23.4315 183.431C8.42858 198.434 3.56145e-05 218.783 3.56145e-05 240C3.56145e-05 261.217 8.42858 281.566 23.4315 296.569C38.4344 311.571 58.7827 320 80 320C64.1775 320 48.7103 324.692 35.5544 333.482C22.3985 342.273 12.1447 354.767 6.08967 369.385C0.0346627 384.003 -1.5496 400.089 1.53721 415.607C4.62403 431.126 12.2433 445.38 23.4315 456.569C34.6197 467.757 48.8743 475.376 64.3928 478.463C79.9113 481.55 95.9966 479.965 110.615 473.91C125.233 467.855 137.727 457.602 146.518 444.446C155.308 431.29 160 415.823 160 400V160H240Z" fill="white"/>
<path d="M240 320C284.183 320 320 284.183 320 240C320 195.817 284.183 160 240 160C195.817 160 160 195.817 160 240C160 284.183 195.817 320 240 320Z" fill="white"/>
</svg>
