<svg width="30" height="35" viewBox="0 0 30 35" fill="none" xmlns="http://www.w3.org/2000/svg">
<path d="M22.5496 7.80585e-05C21.76 0.00445305 20.979 0.195494 20.7298 0.535285C20.5704 0.775909 20.4516 2.27945 20.5704 3.04069C20.5704 3.04069 20.6167 3.54382 20.7008 3.93611C20.6917 4.02464 20.682 4.11311 20.6718 4.20152C20.6377 4.49754 20.5908 4.79191 20.5312 5.08381C20.5168 5.16548 20.2313 5.22235 19.9154 5.30548C19.8494 5.28313 19.7827 5.2627 19.7155 5.24423C19.3764 5.1436 19.1576 5.4236 18.82 5.62339C18.72 5.56506 18.2825 5.36381 18.0434 5.50381C17.8043 5.64381 17.6449 5.78527 17.4058 5.88444C17.287 5.82464 16.9683 5.82464 16.7103 5.92527C16.4501 6.00659 16.2111 6.14506 16.0105 6.33068C12.6576 7.17651 9.03668 8.71505 8.74834 8.86963C7.27475 9.63088 4.86659 10.9332 3.77263 11.8344C1.90203 13.3963 0.787783 15.2207 0.34875 16.5623C-0.209098 18.2248 -0.0497127 19.2267 0.48785 18.585C0.919638 18.0513 2.85254 16.4646 4.07401 15.6698L4.07111 15.68C4.27331 15.5368 4.48649 15.41 4.70866 15.3009L5.04626 15.12L5.77798 14.649C6.65026 15.454 6.94149 16.7388 7.13565 18.4844C7.45443 21.1692 9.60467 22.4117 12.1114 22.4511C14.7195 22.4919 15.6555 23.0329 16.6307 24.3542C16.8523 24.6473 17.0914 24.8019 17.3117 24.8908C17.2128 25.0784 17.135 25.2765 17.0798 25.4815C16.9712 25.7294 16.8987 26.0356 16.8523 26.3681C16.8286 26.4001 16.8136 26.4378 16.8089 26.4775C16.7103 27.2592 16.7292 29.1025 16.7103 30.0839C16.6901 31.0654 16.6698 31.2069 16.5901 31.3469C16.5104 31.5073 16.4307 31.6064 16.3322 32.0279C16.2322 32.4683 16.0525 32.5879 15.8743 32.9481C15.5758 33.5096 15.6352 34.1294 15.9337 34.4108C16.2322 34.6908 17.0494 35.1123 18.1622 34.9723C19.2779 34.8323 19.4373 34.7521 19.2576 33.67C19.2373 33.5096 18.9794 32.7877 19.0591 32.5077C19.1779 32.2073 18.92 31.6867 18.9794 31.6662C19.0388 31.6458 19.1185 31.2462 19.1185 31.045C19.1185 30.8452 19.0982 29.8842 19.317 29.3825C19.4069 29.1783 19.5967 28.7117 19.7894 28.2377C20.4298 27.1833 20.4544 26.5446 20.4849 26.1815C20.5283 25.8869 20.5515 25.5106 20.511 25.0965C20.5907 24.9754 20.9297 24.6954 20.9688 24.1544C20.9688 24.1544 21.902 23.6629 22.5656 22.4802C22.7974 23.2925 23.0148 23.8073 22.98 24.3352C22.2569 24.904 21.9889 25.324 21.8788 25.7338C21.8092 25.7046 21.7686 25.6798 21.7194 25.6754H21.6803C21.6275 25.683 21.5759 25.6972 21.5267 25.7177C21.2485 25.8169 21.4673 27.6398 21.7658 28.3821C22.0642 29.1229 22.2236 29.5633 22.3424 30.3654C22.4627 31.166 22.0642 32.1475 21.9049 32.5879C21.9049 32.5879 21.6455 33.3696 22.2425 33.7896C22.7612 34.1512 24.7115 34.0521 25.5866 34.0521C26.4633 34.0521 27.776 34.3714 28.6121 34.211C29.6481 34.0302 29.806 33.4089 29.1902 33.0881C28.5729 32.7673 27.6369 32.6083 26.4227 31.7275C26.1039 31.5058 25.6663 31.306 25.6069 31.1267C25.5475 30.9458 25.5475 29.9046 25.5678 29.0019C25.5866 28.1006 25.8866 26.9398 25.9851 26.3185C26.0778 25.7381 25.875 25.7527 25.6055 25.8067C25.6518 25.5923 25.7011 25.3808 25.746 25.1563C26.2445 24.2346 26.0257 23.3727 26.0257 23.3727C27.2138 21.8502 26.6053 18.604 26.3444 17.4694C27.2718 17.9113 27.7354 17.7436 27.7354 17.7436C27.8832 17.6634 28.0136 17.5482 28.1325 17.4169C28.6208 16.889 28.8714 16.0811 28.8714 16.0811V16.0417C30.0045 14.8998 30.5392 13.2184 29.2482 12.1159C29.3536 11.8068 29.3798 11.4759 29.3243 11.154C29.2688 10.832 29.1335 10.5293 28.9308 10.274C29.1061 9.84811 29.1487 9.37868 29.053 8.92788C28.9572 8.47708 28.7277 8.06619 28.3947 7.74964C28.1926 7.55668 27.9521 7.40906 27.6891 7.31651C27.3993 6.88631 27.3341 6.70839 26.8603 6.80756C26.6429 6.56693 26.6024 6.38756 26.1445 6.54797C26.1445 6.54797 26.0054 6.20673 25.746 6.12652C25.7227 6.1167 25.6984 6.10937 25.6736 6.10464C25.236 5.79839 24.839 5.7911 24.555 5.87131C24.4623 5.80131 24.4666 5.69048 24.4536 5.30548C24.442 5.01381 24.426 4.59673 24.4086 4.22048C24.4478 3.74215 24.5564 2.80007 24.5912 2.32028C24.6318 1.7807 24.6521 0.937784 24.413 0.577576C24.1333 0.175078 23.3379 -0.00429693 22.5496 7.80585e-05ZM22.5424 0.49591C23.5567 0.49591 23.9942 0.816742 24.0551 0.996117C24.0739 1.03695 24.1739 1.71799 24.1131 2.1584C24.0942 2.31882 24.0739 2.90069 24.0348 3.16028C24.0145 3.42132 23.9348 3.72173 23.8551 4.14173C23.7957 4.48298 23.5175 4.86361 23.2987 4.9234C22.9206 5.02402 22.2236 5.0036 21.8252 4.9234C21.7252 4.90298 21.6455 4.84319 21.547 4.7834C21.3282 4.42173 21.2079 4.14173 21.1688 3.70132C21.1282 3.27986 21.0485 3.10049 21.0297 2.77965C21.0094 2.2984 21.0094 1.97757 21.0094 1.97757C21.0297 1.71799 21.1094 1.07632 21.1094 1.01653C21.1282 0.837159 21.447 0.49591 22.5424 0.49591ZM20.9007 4.43632C21.1123 4.65361 21.3369 4.88256 21.5267 5.04298C21.7063 5.2034 22.1439 5.18298 22.5409 5.18298C22.9003 5.18298 23.2191 5.22381 23.3582 5.1436C23.5813 5.03131 23.8725 4.8009 24.116 4.56902C24.1319 4.79069 24.1478 5.01235 24.1536 5.2034C24.1681 5.6336 24.0913 5.88589 24.1884 6.03464C24.0696 6.10464 23.9363 6.18777 23.7986 6.26214C23.5798 6.37881 23.3553 6.46048 23.2147 6.42985H23.2118C22.909 6.37881 21.8628 6.11631 21.2833 5.83631C21.0413 5.4586 20.7979 5.2559 20.8109 5.18298C20.85 4.98319 20.8688 4.82277 20.8891 4.56319C20.8949 4.51944 20.8964 4.47861 20.9007 4.43486V4.43632ZM19.6648 5.44256L19.7155 5.44402C20.3298 5.49652 20.6573 5.66569 20.8862 5.85819L20.9964 5.90194L21.0079 5.86256C21.0761 5.90631 21.1557 5.95006 21.2427 5.99089C21.9237 6.22277 22.8423 6.44006 23.1394 6.50568C23.4973 6.58589 24.0739 6.22568 24.3536 6.04485C24.8506 5.72402 25.4881 5.98652 25.7866 6.32631C25.9851 6.54506 26.0648 6.68652 26.0648 6.74631C26.5227 6.58589 26.5821 6.8061 26.8009 7.04672C27.3587 6.78568 27.3978 7.10651 27.4384 7.24651C27.2616 7.24651 27.0066 7.26693 26.6589 7.30485L26.6415 7.28735C26.4328 7.06422 26.059 6.86589 25.7736 6.72735C25.6475 6.68214 25.5127 6.65589 25.4084 6.58589C25.249 6.50568 25.0897 6.3861 24.8506 6.40652C23.8551 6.5261 23.6566 6.86589 22.8003 6.6661C21.9643 6.47068 21.7324 6.29568 20.8688 6.34381L20.8703 6.38173C20.7182 6.40506 20.5805 6.42548 20.5515 6.42548C20.253 6.44298 19.5054 6.52318 18.8809 6.27964C18.8058 6.23719 18.7279 6.20015 18.6476 6.16881L18.6404 6.16589H18.6389C18.3781 6.06381 18.0738 6.00548 17.7261 6.00256H17.6884C18.0043 5.84214 18.2042 5.62485 18.4998 5.68464C18.8186 5.74444 19.1373 6.00548 19.317 6.20527C19.2596 6.04942 19.1719 5.90664 19.0591 5.78527C19.2446 5.65402 19.4141 5.44985 19.6648 5.44256ZM18.0709 6.23735C18.2883 6.24027 18.4766 6.27527 18.6751 6.34381C18.7012 6.35693 18.7244 6.37006 18.7606 6.3861C19.1779 6.58589 19.9343 6.62527 20.5718 6.58589C20.8485 6.57461 21.1226 6.52805 21.3876 6.44735C21.8541 6.48235 22.1323 6.60777 22.8032 6.76235C23.2524 6.86443 23.5306 6.82797 23.8102 6.75214C24.0899 6.67485 24.3695 6.56256 24.8578 6.50423C24.949 6.49449 25.0412 6.5009 25.1302 6.52318C25.1853 6.55235 25.2389 6.58152 25.2896 6.61214C25.3794 6.6836 25.5997 6.80902 25.7866 6.88777C26.0242 6.98693 26.6415 7.40839 26.7212 7.50756C26.7357 7.52646 26.7546 7.54148 26.7762 7.55131C27.1269 8.00922 27.366 8.65234 27.35 9.31588C27.2631 9.98671 26.7328 9.62797 26.443 9.49088C25.846 9.2313 25.249 9.05047 24.5521 9.05047C23.8566 9.05047 22.9597 9.11026 22.1831 9.31151C21.1094 9.61192 20.7906 9.59151 20.3139 9.35088C19.8357 9.0913 18.9997 8.44964 18.9997 8.44964V8.46422C18.9896 8.45401 18.9823 8.44672 18.9794 8.44964C18.9186 8.55026 18.7795 8.80984 18.6998 8.93088C18.6606 9.69213 18.2028 10.8938 17.3464 11.1942C17.2363 11.2353 17.1185 11.2513 17.0014 11.241C16.8844 11.2306 16.7711 11.1942 16.6698 11.1344C16.4215 10.9683 16.1539 10.8336 15.8729 10.7334C16.5698 11.2934 16.9291 11.7148 17.2479 12.4557C17.5 13.0827 17.8492 13.9388 18.6998 14.8561C19.2257 14.8502 19.7503 14.9975 20.0937 15.3607C20.2922 15.5604 20.6109 15.7821 20.5718 15.9819C20.5718 16.0417 20.4516 16.2021 20.353 16.3232C20.2581 16.4347 20.158 16.5418 20.0531 16.644C19.9748 16.7023 19.6952 16.924 19.6358 16.9648C19.5764 17.0042 19.4967 17.1034 19.4373 17.1238C19.2373 17.2244 19.0185 17.1442 18.82 17.0436C18.6215 16.9429 18.8591 16.924 18.6404 16.7636C18.1477 16.4136 17.8565 16.1642 17.9825 15.5502C16.6321 14.3923 14.2718 13.7127 13.7646 12.4761C13.4459 11.674 13.4053 11.2744 13.7038 10.9332C14.5804 9.9313 14.2413 8.97026 14.8992 8.55026C15.515 8.14922 16.0337 8.60859 16.3322 9.03151C16.1525 8.28922 15.5352 8.10839 15.5352 8.0486C15.5352 7.12693 16.4119 6.48672 17.2885 6.32631C17.6044 6.26652 17.8521 6.23443 18.0709 6.23735ZM15.3947 7.0161C15.1918 7.30193 15.06 7.65047 15.0383 8.06755C14.7398 8.10839 14.0631 8.14776 13.7241 9.39026C13.65 9.70103 13.5461 10.0038 13.414 10.2944C13.2647 10.36 9.14536 12.1523 5.83739 14.0015L5.8229 13.9913C5.35924 14.2538 4.91441 14.5207 4.49131 14.7875L4.31019 14.8998L4.30874 14.9042C2.66273 15.9586 1.35288 17.0188 0.48785 17.9842C1.08482 14.0773 4.15081 12.0342 5.60266 11.133C9.10913 8.96151 12.3099 7.88818 15.3947 7.0161ZM27.0399 7.48714C27.4167 7.48131 27.8166 7.57464 28.1354 7.88818C28.9902 8.72963 28.7512 9.6513 28.4932 10.2915C28.7106 10.5525 29.2293 11.2934 28.9105 12.1742C28.8526 12.3755 28.4136 12.3755 28.0948 12.8961C28.8917 12.4352 29.3887 12.5563 29.5684 13.1367C29.8466 14.038 29.2293 15.12 28.6918 15.7209C28.6918 15.7004 28.6715 15.68 28.6715 15.6611C28.5918 15.9615 28.4932 16.5419 27.8963 17.1836C27.5978 17.5044 27.3587 17.4636 27.0197 17.3834C26.7081 17.3046 26.5531 17.1763 26.2329 16.9809C26.1807 16.679 26.0851 16.2779 26.0851 16.1204C26.0851 16.0563 26.0793 15.9148 26.0706 15.7661C26.117 15.7136 26.1662 15.6582 26.2242 15.5998C26.2242 15.5998 26.4821 15.2396 26.8617 15.26C27.2385 15.2804 27.6369 15.2002 27.7369 15.0996C27.7369 14.3996 26.94 14.3792 27.2196 13.1761C27.2385 13.1177 27.3384 13.0157 27.6572 12.9763C27.179 12.8757 26.9617 12.8552 26.6226 12.5359L26.6038 12.5169C26.7632 12.148 26.9284 11.8505 27.0399 11.6346C27.3196 11.0732 27.1588 10.3921 27.1588 10.3921C27.4587 10.2915 27.7166 10.1311 27.7572 10.0319C28.0513 9.05047 27.5196 8.10401 26.8806 7.49443C26.9327 7.49006 26.9863 7.4886 27.0399 7.48714ZM19.1287 8.83609C19.1431 8.85943 19.1576 8.88422 19.1779 8.90901C19.4373 9.22984 20.014 9.63088 20.7906 9.89047C21.1673 10.0115 21.4673 9.9313 21.8049 9.85109C23.432 9.44567 25.1433 9.34651 26.6299 10.0771C26.7123 10.6075 26.633 11.1506 26.4024 11.6346C26.0662 12.3127 25.6301 13.1921 25.7069 14.8648C25.3505 14.929 23.6508 15.0748 22.8206 14.9188C22.0657 14.7773 20.7689 14.1532 20.4733 13.9125C20.3868 13.5046 20.3263 13.0916 20.2922 12.6759C20.5438 12.5573 20.7679 12.3869 20.95 12.1757C20.353 12.2748 20.1139 12.234 19.7546 12.0342C19.4141 11.8446 18.8244 11.2569 18.494 10.8384C18.8258 10.4155 19.0635 9.83213 18.9794 9.05047C19.033 8.97755 19.0808 8.90609 19.1272 8.83609H19.1287ZM12.7822 11.1665C12.6518 11.5355 12.917 12.1202 13.1068 12.5563C13.8429 14.2757 16.1061 14.4375 17.6377 15.7354C17.6142 15.9285 17.6443 16.1244 17.7246 16.3013C17.8449 16.5419 18.2622 16.9036 18.2622 16.9036C18.1825 16.9823 18.2231 17.1427 18.2231 17.1427C18.5186 17.4592 18.9533 17.4971 19.0156 17.5015C18.3853 19.3215 17.8333 21.3311 18.3622 23.4733C18.1028 23.8292 17.8289 24.1223 17.5928 24.4475C17.3351 24.3713 17.1092 24.2126 16.9494 23.9954C16.0931 22.7529 14.8383 21.9304 12.5692 21.9917C9.16564 22.0719 7.81232 20.669 7.5544 17.9842C7.4182 16.5638 7.03713 15.1813 6.26773 14.369C8.46435 13.1455 11.5231 11.5748 12.491 11.273C12.5889 11.2412 12.687 11.2057 12.7822 11.1665ZM17.8478 11.429C18.3998 12.0736 18.9997 12.4892 19.5764 12.8567C19.6952 13.3569 19.7358 13.6982 19.8546 14.3588H19.7952L19.7561 14.808C19.4636 14.7196 19.1623 14.6643 18.8577 14.6432L18.8591 14.6388C17.5652 13.0973 17.8449 12.495 17.3262 11.6944C17.4667 11.6448 17.6522 11.5573 17.8478 11.429ZM26.4125 13.0127C26.5227 13.1105 26.6705 13.1877 26.8806 13.2373C26.4068 14.229 27.3587 14.5673 27.4167 14.9436C27.2095 15.0646 26.8849 14.9975 26.543 14.98C26.3763 14.9713 26.2111 15.0748 26.0778 15.1944L26.1242 14.6592C26.1329 14.0321 26.2546 13.4794 26.414 13.0113L26.4125 13.0127ZM20.4921 14.5061C20.5269 14.5571 20.75 14.6971 21.944 15.0194C23.4306 15.4204 25.3099 15.1944 25.6388 15.1507C25.6335 15.1951 25.6227 15.2386 25.6069 15.2804C25.6069 15.7807 25.6866 16.1409 25.746 16.4617C25.8228 16.9109 25.9344 17.239 25.9822 17.5409L25.9938 17.5307C26.3329 19.5242 26.8067 22.0996 25.6069 23.434C25.6663 23.714 25.7069 24.115 25.6272 24.5758C25.5769 24.8418 25.5037 25.1028 25.4084 25.356C25.3427 25.5226 25.2903 25.6943 25.2519 25.8694C23.6581 26.0765 22.709 25.9496 22.2671 25.8475C22.4453 25.3021 22.8568 24.7479 23.5364 24.7756C23.5045 23.4471 23.1539 22.9921 22.796 22.0179C23.3683 20.7302 23.2292 19.5898 23.6958 17.8646C23.3379 18.2452 23.0582 19.6277 22.8206 20.4692C22.5221 21.6913 22.0048 22.8725 20.6109 23.8146C20.6109 24.1354 20.511 24.3746 20.3921 24.535C20.1328 24.9156 19.7952 25.0367 19.6764 25.6579C19.8357 25.4567 20.0531 25.2773 20.0531 25.3371C20.0479 25.577 20.0358 25.8168 20.0169 26.056L20.0343 26.0575C19.7952 27.58 19.2779 28.2815 18.9591 29.1419C18.7403 29.7631 18.82 31.1252 18.7403 31.1456C18.1825 31.2667 17.3276 31.0464 17.0885 30.9269C17.3233 29.2644 17.1161 27.6048 17.7203 25.6769L17.6985 25.6681C17.9304 24.8602 18.3911 24.3877 19.0591 23.5331C18.8258 22.7748 18.2883 21.1415 19.4445 17.4344C19.4923 17.414 19.5416 17.3907 19.5967 17.3629L19.8952 17.1632C19.9531 17.1223 20.0343 17.0625 20.0937 17.0232C20.1936 16.9619 20.6312 16.4821 20.6906 16.4223C20.8297 16.2809 20.9297 16.2415 20.9688 16.0811C21.0485 15.7807 20.6109 15.4802 20.4327 15.279C20.4066 15.2513 20.3892 15.2294 20.3704 15.2061C20.3892 15.1492 20.4095 15.0938 20.4313 15.0398C20.4458 14.8575 20.4718 14.6621 20.4921 14.5061ZM21.7715 26.0881C21.844 26.091 22.0237 26.266 22.8597 26.3185C23.816 26.3769 25.0897 26.1975 25.4273 26.1173C25.7663 26.0371 25.5678 26.2777 25.5272 26.5183L25.4896 26.7648C24.9114 26.9602 24.029 27.039 23.4378 27.0594C22.8684 27.0783 22.212 27.0419 21.7556 26.899C21.6861 26.5198 21.6643 26.2135 21.7455 26.0969C21.749 26.0937 21.7531 26.0913 21.7576 26.0898C21.7621 26.0883 21.7668 26.0877 21.7715 26.0881ZM25.4026 27.3219C25.3737 27.5187 25.3519 27.6471 25.3186 27.8644C24.7564 28.0394 24.0319 28.0423 23.4784 28.0612C22.9874 28.0841 22.4953 28.0498 22.0121 27.9592C21.9947 27.9066 21.9787 27.8536 21.9643 27.8002C21.9315 27.6781 21.9001 27.5556 21.8701 27.4327C22.1294 27.4823 22.638 27.5479 23.5364 27.5596C24.167 27.5796 24.7968 27.4993 25.4026 27.3219ZM25.249 28.3208C25.1491 28.9625 25.1693 30.9254 25.2288 31.4664C25.249 31.6269 26.6024 32.2277 27.0791 32.5894C27.2341 32.7133 27.4543 32.8183 27.6905 32.9131C27.7514 32.9744 27.8586 33.0662 27.976 33.2091C28.2107 33.5198 28.0513 33.845 27.7804 33.9762C27.3978 33.966 26.9574 33.9004 26.2242 33.7896C25.2172 33.6379 24.5883 33.6423 23.7175 33.635V33.6306C23.4973 33.2296 23.6364 32.5689 23.6364 32.5689C23.2326 32.557 22.8348 32.4679 22.4641 32.3064L22.4815 32.2685C22.8206 31.5685 22.8003 31.4067 22.7003 30.205C22.6322 29.3621 22.4163 28.9173 22.2149 28.4623C22.4598 28.4856 22.8076 28.5133 23.4567 28.5221C24.0605 28.5376 24.6635 28.4699 25.249 28.3208ZM17.5609 31.36C17.913 31.36 18.4303 31.4067 18.5404 31.5058V31.5262C18.5607 31.7669 18.7795 32.1081 18.6998 32.2875C18.6606 32.3881 18.5607 32.2277 18.4216 32.1883C18.481 32.5675 18.6404 33.2689 18.8794 33.81C19.0388 34.1716 18.9388 34.4312 18.4013 34.5319C17.9231 34.5523 17.3073 34.5319 16.79 34.4108C16.1931 34.1104 15.9931 33.95 16.1134 33.39C16.2119 32.9889 16.8292 32.5296 17.3667 32.1679C17.0682 32.1883 16.7495 32.4085 16.79 32.1475C16.8697 31.6269 17.0885 31.6662 17.2276 31.4066C17.1986 31.3775 17.3493 31.36 17.5609 31.36Z" fill="white"/>
</svg>
