<svg width="76" height="80" viewBox="0 0 76 80" fill="none" xmlns="http://www.w3.org/2000/svg">
<path d="M20.5103 2.04748C23.4515 3.04385 26.2496 4.42117 28.8332 6.14431C32.4819 5.21179 36.2336 4.74331 39.9996 4.74998C43.8888 4.74998 47.641 5.23564 51.1582 6.14039C53.7407 4.41893 56.5375 3.04293 59.4772 2.04748C62.2071 1.11923 66.0963 -0.384772 68.4072 2.17281C69.9738 3.91181 70.3655 6.82581 70.6436 9.05048C70.9569 11.5336 71.0313 14.7688 70.2088 17.9805C73.3539 22.0421 75.2496 26.887 75.2496 32.1666C75.2496 40.1645 70.9178 47.1087 64.5062 51.9184C61.4206 54.2039 57.9983 55.9956 54.362 57.2294C55.2002 59.1486 55.6663 61.2714 55.6663 63.5V75.25C55.6663 76.2887 55.2536 77.285 54.5191 78.0195C53.7846 78.754 52.7884 79.1666 51.7496 79.1666H28.2496C27.2108 79.1666 26.2146 78.754 25.4801 78.0195C24.7456 77.285 24.3329 76.2887 24.3329 75.25V71.3686C20.5925 71.8268 17.4553 71.4195 14.788 70.2876C11.9993 69.1047 10.0567 67.2717 8.59576 65.5171C7.20926 63.8564 5.69743 60.1121 3.51193 59.3836C3.02382 59.221 2.5725 58.964 2.18374 58.627C1.79498 58.29 1.4764 57.8798 1.24618 57.4197C0.781227 56.4906 0.70443 55.4148 1.03268 54.429C1.36093 53.4432 2.06734 52.6282 2.9965 52.1632C3.92567 51.6983 5.00147 51.6215 5.98726 51.9497C8.59576 52.8192 10.2956 54.6992 11.4588 56.2111C13.3388 58.6394 14.8663 61.8119 17.843 63.077C19.0689 63.5979 20.8667 63.9386 23.6788 63.5548L24.3329 63.4216C24.3404 61.2902 24.7843 59.1828 25.6372 57.2294C22.0009 55.9957 18.5786 54.2039 15.493 51.9184C9.08143 47.1087 4.7496 40.1684 4.7496 32.1666C4.7496 26.8948 6.64135 22.0538 9.7786 17.9961C8.9561 14.7845 9.0266 11.5415 9.33993 9.0544L9.35951 8.90556C9.64543 6.62606 9.97835 3.94314 11.5763 2.17281C13.8872 -0.384772 17.7803 1.12314 20.5063 2.05139L20.5103 2.04748Z" fill="white"/>
</svg>
