<svg width="30" height="30" viewBox="0 0 30 30" fill="none" xmlns="http://www.w3.org/2000/svg">
<path d="M0 0H30V30H0V0ZM7.88333 25.0667C8.55 26.4833 9.86667 27.65 12.1167 27.65C14.6167 27.65 16.3333 26.3167 16.3333 23.4V13.7667H13.5V23.3333C13.5 24.7667 12.9167 25.1333 12 25.1333C11.0333 25.1333 10.6333 24.4667 10.1833 23.6833L7.88333 25.0667ZM17.85 24.7667C18.6833 26.4 20.3667 27.65 23 27.65C25.6667 27.65 27.6667 26.2667 27.6667 23.7167C27.6667 21.3667 26.3167 20.3167 23.9167 19.2833L23.2167 18.9833C22 18.4667 21.4833 18.1167 21.4833 17.2833C21.4833 16.6 22 16.0667 22.8333 16.0667C23.6333 16.0667 24.1667 16.4167 24.65 17.2833L26.8333 15.8333C25.9167 14.2333 24.6167 13.6167 22.8333 13.6167C20.3167 13.6167 18.7 15.2167 18.7 17.3333C18.7 19.6333 20.05 20.7167 22.0833 21.5833L22.7833 21.8833C24.0833 22.45 24.85 22.8 24.85 23.7667C24.85 24.5667 24.1 25.15 22.9333 25.15C21.55 25.15 20.75 24.4333 20.15 23.4333L17.85 24.7667Z" fill="white"/>
</svg>
