<svg width="94" height="52" viewBox="0 0 94 52" fill="none" xmlns="http://www.w3.org/2000/svg">
<path d="M47 0.541748C20.6448 0.541748 0 11.7238 0 26.0001C0 40.2763 20.6448 51.4584 47 51.4584C73.3553 51.4584 94 40.2763 94 26.0001C94 11.7238 73.3553 0.541748 47 0.541748ZM42.1198 8.37508H47.2507L45.6213 16.2084H50.2038C53.11 16.2084 55.0605 16.6157 56.1728 17.6302C57.2578 18.6328 57.5868 20.2778 57.152 22.5182L55.1153 31.8751H49.8983L51.7744 23.2232C52.0016 22.0364 51.9115 21.21 51.512 20.7752C51.1164 20.3405 50.243 20.1251 48.9348 20.1251H44.8262L42.347 31.8751H37.2083L42.1198 8.37508ZM19.5833 16.2084H30.0252C35.0033 16.2084 38.0191 19.5454 36.8402 24.5235C35.4693 30.3084 31.8033 31.8751 25.051 31.8751H21.8237L20.8014 37.7501H15.6118L19.5833 16.2084ZM60.7083 16.2084H71.1502C76.1283 16.2084 79.1441 19.5454 77.9652 24.5235C76.5943 30.3084 72.9244 31.8751 66.176 31.8751H62.9487L61.9264 37.7501H56.7368L60.7083 16.2084ZM24.0288 20.1251L22.5522 27.9584H25.9009C28.7992 27.9584 31.4939 27.6294 31.9443 23.3054C32.1128 21.633 31.4156 20.1251 28.0668 20.1251H24.0288ZM65.1538 20.1251L63.6772 27.9584H67.0259C69.9243 27.9584 72.6189 27.6294 73.0693 23.3054C73.2378 21.633 72.5445 20.1251 69.1918 20.1251H65.1538Z" fill="white"/>
</svg>
