<svg width="124" height="111" viewBox="0 0 124 111" fill="none" xmlns="http://www.w3.org/2000/svg">
<path d="M124 55.3931C124 47.1781 113.713 39.392 97.9393 34.5663C101.582 18.4928 99.9647 5.70013 92.8347 1.60296C91.107 0.635348 89.1517 0.148295 87.172 0.192459V5.82413C88.3345 5.82413 89.2697 6.05663 90.055 6.48546C93.4908 8.45913 94.984 15.9611 93.8215 25.6176C93.5425 27.9943 93.0878 30.495 92.5298 33.0473C87.2476 31.7744 81.8866 30.8544 76.4822 30.2935C73.2626 25.8516 69.75 21.6297 65.968 17.6558C74.2088 9.99879 81.9433 5.80346 87.203 5.80346V0.166626C80.2487 0.166626 71.1502 5.12146 61.9483 13.7136C52.7517 5.17829 43.648 0.269959 36.6988 0.269959V5.90163C41.9327 5.90163 49.693 10.0763 57.9338 17.6816C54.3947 21.4016 50.8555 25.6176 47.492 30.2935C42.0765 30.8482 36.7058 31.777 31.4185 33.0731C30.8597 30.654 30.42 28.209 30.101 25.7468C28.9127 16.0851 30.38 8.58313 33.7952 6.58879C34.5495 6.13413 35.5363 5.92746 36.6988 5.92746V0.295793C34.5805 0.295793 32.6533 0.750459 30.9897 1.70629C23.8855 5.80346 22.2942 18.5651 25.9573 34.5921C10.2352 39.4488 0 47.204 0 55.3931C0 63.6081 10.2868 71.3943 26.0607 76.2148C22.4182 92.2935 24.0353 105.086 31.1653 109.178C32.8083 110.139 34.7303 110.594 36.8487 110.594C43.803 110.594 52.9015 105.639 62.1033 97.0468C71.3 105.587 80.3985 110.49 87.3528 110.49C89.3477 110.533 91.3179 110.044 93.062 109.075C100.166 104.983 101.757 92.2211 98.0943 76.1941C113.765 71.3685 124 63.5823 124 55.3931ZM91.0883 38.5343C90.1066 41.9125 88.9687 45.2435 87.6783 48.5163C85.566 44.4075 83.2466 40.4086 80.7292 36.5348C84.32 37.067 87.7817 37.7231 91.0935 38.5343H91.0883ZM79.515 65.4526C77.6226 68.7565 75.5902 71.9783 73.4235 75.1091C65.8401 75.7775 58.213 75.7862 50.6282 75.135C46.2776 68.9204 42.4728 62.3411 39.2563 55.4706C42.4678 48.584 46.2565 41.9815 50.5817 35.734C58.1632 35.0642 65.7885 35.0538 73.3718 35.703C75.4695 38.71 77.5207 41.9236 79.4892 45.313C81.4112 48.6196 83.1575 51.978 84.7488 55.3673C83.1398 58.7977 81.3938 62.1622 79.515 65.4526ZM87.6783 62.1666C89.0423 65.5508 90.21 68.9401 91.1658 72.2261C87.8592 73.0373 84.3665 73.7193 80.755 74.2463C83.2621 70.3373 85.5727 66.3057 87.6783 62.1666ZM62.0517 89.1366C59.7008 86.7083 57.35 84.0061 55.025 81.0456C57.2983 81.149 59.6233 81.2265 61.9742 81.2265C64.3508 81.2265 66.7017 81.1748 69.0008 81.0456C66.7275 84.0061 64.3767 86.7083 62.0517 89.1366ZM43.245 74.2463C39.7613 73.7415 36.3029 73.076 32.8807 72.252C33.8158 68.9918 34.9783 65.6283 36.2907 62.27C37.3292 64.285 38.4193 66.3103 39.6077 68.3356C40.796 70.3558 42.005 72.3295 43.245 74.2463ZM61.9225 21.6496C64.2733 24.078 66.6242 26.7801 68.9492 29.7406C66.6758 29.6373 64.3508 29.5598 62 29.5598C59.6233 29.5598 57.2725 29.6115 54.9733 29.7406C57.2467 26.7801 59.5975 24.078 61.9225 21.6496ZM43.2192 36.54C40.7127 40.4404 38.402 44.4634 36.2958 48.5938C34.9691 45.2998 33.8052 41.9426 32.8083 38.5343C36.115 37.749 39.6077 37.067 43.2192 36.54ZM20.3463 68.1806C11.3977 64.3676 5.611 59.3611 5.611 55.3931C5.611 51.4251 11.3977 46.3928 20.3463 42.6056C22.5163 41.6705 24.893 40.8335 27.3472 40.0533C28.7887 45.003 30.6848 50.1593 33.0305 55.4448C30.8159 60.4161 28.9429 65.5326 27.4247 70.7588C25.0245 70.0156 22.6622 69.1552 20.3463 68.1806ZM33.945 104.296C30.5092 102.332 29.016 94.82 30.1785 85.1686C30.4575 82.792 30.9122 80.2861 31.4702 77.7338C36.4198 78.948 41.8293 79.8831 47.5178 80.4928C50.7376 84.9345 54.2501 89.1564 58.032 93.1305C49.7912 100.787 42.0567 104.983 36.797 104.983C35.8047 104.994 34.8251 104.759 33.945 104.301V104.296ZM93.899 85.0395C95.0873 94.696 93.62 102.203 90.2048 104.197C89.4505 104.652 88.4637 104.854 87.3012 104.854C82.0673 104.854 74.307 100.684 66.0662 93.0736C69.8323 89.1163 73.3212 84.9041 76.508 80.467C81.9235 79.9122 87.2942 78.9834 92.5815 77.6873C93.1653 80.2396 93.6148 82.6886 93.899 85.0395ZM103.628 68.1806C101.458 69.1158 99.0812 69.9528 96.627 70.733C95.082 65.4801 93.1832 60.3378 90.9437 55.3415C93.2687 50.087 95.1338 44.9565 96.5495 40.0275C98.9573 40.7731 101.328 41.6335 103.654 42.6056C112.602 46.4186 118.389 51.4251 118.389 55.3931C118.363 59.3611 112.576 64.3935 103.628 68.1806Z" fill="white"/>
<path d="M61.9745 66.9458C65.0385 66.9458 67.977 65.7286 70.1435 63.5621C72.3101 61.3955 73.5272 58.4571 73.5272 55.3931C73.5272 52.3292 72.3101 49.3907 70.1435 47.2242C67.977 45.0576 65.0385 43.8405 61.9745 43.8405C58.9106 43.8405 55.9721 45.0576 53.8056 47.2242C51.639 49.3907 50.4219 52.3292 50.4219 55.3931C50.4219 58.4571 51.639 61.3955 53.8056 63.5621C55.9721 65.7286 58.9106 66.9458 61.9745 66.9458Z" fill="white"/>
</svg>
