<svg width="120" height="120" viewBox="0 0 120 120" fill="none" xmlns="http://www.w3.org/2000/svg">
<g clip-path="url(#clip0_806_393)">
<path d="M60 0C93 0 120 27 120 60C120 93 93 120 60 120C27 120 0 93 0 60C0 27 27 0 60 0ZM48 79.875C48.75 83.25 48.75 86.25 48 88.875L47.625 90C47.625 90.375 47.25 90.75 47.25 90.75C46.5 92.25 45.75 93.375 44.625 94.875C41.25 98.625 36.375 100.125 34.125 99C31.875 97.875 33 92.25 37.125 88.125C41.625 83.625 47.625 80.625 47.625 80.625L48 79.875ZM97.5 25.5C94.875 15 77.25 11.25 60.375 17.25C50.625 21 39.75 26.625 31.875 33.75C22.5 42.375 21.375 49.875 21.75 52.875C24 63.75 39 71.25 45.375 76.5C43.5 77.25 30 84 27 91.125C23.625 98.625 27.375 103.875 30 104.25C37.875 106.5 46.125 102.375 50.25 96C54.375 89.625 54 81.75 52.125 77.625C55.0421 76.7241 58.143 76.5949 61.125 77.25C71.625 78.375 73.875 85.125 73.125 87.75C72.375 90.375 70.5 91.875 69.75 92.625C69 93 68.625 93.375 69 93.375C69 93.75 69.375 93.75 70.125 93.75C70.875 93.75 75.75 91.5 75.75 86.25C76.125 79.875 69.75 72.75 58.875 72.75C54.375 72.75 51.375 73.125 49.5 73.875C49.5 73.5 49.125 73.5 49.125 73.5C42.375 66.375 30 61.125 30.375 51.375C30.375 48 31.875 38.625 54.375 27.375C72.75 18 87.75 20.625 90.375 26.25C94.125 34.125 82.5 49.125 63.375 51.375C55.875 52.125 52.125 49.5 51.375 48.375C50.25 47.25 50.25 47.25 49.875 47.25C49.125 47.625 49.5 48.375 49.875 49.125C50.625 50.625 52.875 53.25 57 54.75C60.375 55.875 69 56.625 79.5 52.5C91.125 48 100.125 35.625 97.5 25.125V25.5Z" fill="white"/>
</g>
<defs>
<clipPath id="clip0_806_393">
<rect width="120" height="120" fill="white"/>
</clipPath>
</defs>
</svg>
