<svg width="1280" height="80" viewBox="0 0 1280 80" fill="none" xmlns="http://www.w3.org/2000/svg">
<path fill-rule="evenodd" clip-rule="evenodd" d="M1280 25.3164L1226.67 18.481C1173.33 11.6455 1066.67 -2.02536 960 0.253124C853.333 2.53161 746.667 20.7595 640 20.7595C533.333 20.7595 426.667 2.53161 320 7.08857C213.333 11.6455 106.667 38.9873 53.3333 52.6582L-6.67572e-05 66.3291V80H53.3333C106.667 80 213.333 80 320 80C426.667 80 533.333 80 640 80C746.667 80 853.333 80 960 80C1066.67 80 1173.33 80 1226.67 80H1280V25.3164Z" fill="#696DF6"/>
</svg>
