<svg width="453" height="567" viewBox="0 0 453 567" fill="none" xmlns="http://www.w3.org/2000/svg">
<path d="M41.5494 220.494C46.9005 205.755 42.8808 187.095 53.9108 174.899C57.1732 172.916 58.9035 174.019 60.2463 177.477C61.057 182.026 62.9563 197.692 56.1255 197.684C55.2661 207.468 55.8034 217.323 57.9071 226.924C62.9485 226.115 66.6238 228.706 70.3011 230.633C73.0433 232.07 75.7866 233.137 79.0983 232.151C92.7698 229.741 96.666 244.098 96.832 255.817C97.0327 261.535 97.5701 274.863 100.089 280.412C111.488 256.803 135.429 246.055 158.24 240.748C161.816 239.759 164.867 238.407 167.161 236.097C186.38 228.509 177.147 203.646 185.989 189.357C199.829 172.369 216.451 167.481 237.39 170.393C255.711 172.419 268.165 191.029 267.035 208.596C266.696 212.18 268.848 215.95 270.113 219.639C282.759 234.771 302.437 241.541 319.362 250.685C375.812 278.275 395.375 299.359 417.312 358.067C427.574 380.155 439.856 401.593 443.935 425.92C448.728 454.587 448.743 483.932 447.074 512.881C450.189 513.255 446.799 535.509 444.067 543.217C443.131 545.86 440.888 547.765 438.092 547.721C432.47 550.453 419.27 561.465 413.389 561.1C394.388 559.93 375.92 561.74 357.614 560.804C337.81 559.792 318.196 556.097 298.307 556.576C263.623 557.412 288.455 559.471 252.571 561.1C229.918 562.145 147.275 549.773 124.686 551.793C106.313 555.658 97.931 549.142 100.734 529.947C101.77 522.59 105.079 506.227 94.1935 505.532C89.0442 506.13 84.7818 511.275 80.9235 514.282C46.8481 539.652 12.0367 521.384 9.29352 479.678C4.12915 444.698 -3.11197 436.434 12.6291 401.503C62.4309 271.466 -12.6015 289.133 38.0587 228.225C42.0146 231.669 41.0089 222.476 41.5494 220.494Z" fill="white"/>
<path fill-rule="evenodd" clip-rule="evenodd" d="M50.7865 174.293C53.4369 171.918 57.7574 171.254 60.4752 173.925C63.0628 176.466 62.5187 180.472 62.0613 183.842C62.0338 184.044 62.0068 184.243 61.9809 184.44L61.7542 186.208C61.2065 190.322 60.4695 194.405 60.0447 198.536C59.5364 203.525 59.2978 208.427 59.1941 213.432C59.137 216.072 59.1163 218.717 59.1682 221.362L59.1759 221.813C59.1842 222.41 59.1806 222.989 59.1474 223.562C60.2781 223.681 61.3932 223.925 62.4824 224.309C65.8434 225.491 69.1883 228.167 69.9823 231.736C71.6213 230.496 73.5404 229.568 75.3039 228.867C79.1264 227.353 83.6803 226.933 87.617 228.297C95.9416 231.176 99.0847 240.014 99.619 248.094C99.9716 253.452 99.4478 258.857 98.3741 264.158C99.2922 263.66 100.21 263.193 101.03 262.71L112.157 256.147C117.85 252.789 123.56 249.437 129.37 246.284C139.198 240.952 149.66 236.684 160.77 236.689C160.77 236.689 169.961 235.117 169.961 235.034C171.164 233.494 172.237 231.86 173.171 230.139C175.619 225.615 176.496 220.616 178.596 215.989C179.359 214.298 181.542 215.118 182.092 216.445C184.328 221.834 182.517 228.748 180.329 233.852C179.239 236.388 177.943 238.779 176.319 240.999C178.036 242.416 179.826 243.738 181.693 244.972C187.808 249.018 194.462 252.145 201.511 254.174C214.991 258.053 228.015 256.616 241.049 251.818C252.159 247.732 263.274 241.523 272.06 234.044C273.528 232.799 274.887 231.461 276.158 230.019L276.196 229.975L276.235 229.936C268.097 225.003 261.713 217.654 262.283 207.291C262.501 203.396 268.621 203.391 268.362 207.291C267.729 216.783 274.259 222.701 282.034 226.616C286.835 226.562 292.001 228.137 296.435 229.915L297.112 230.19C300.172 231.45 303.113 233.001 306.1 234.418L306.581 234.647C306.901 234.801 307.219 234.959 307.537 235.117C315.939 237.514 324.342 239.915 332.614 242.722C345.13 246.964 357.464 252.187 368.459 259.604C379.668 267.161 389.009 276.932 397.214 287.612C431.156 331.792 447.328 387.33 451.389 442.304C452.665 459.539 452.779 476.816 451.835 494.072C451.368 502.698 450.72 511.37 449.589 519.944L449.515 520.521C448.414 529.346 447.18 549.739 444.75 557.749C444.662 558.039 444.351 558.107 444.143 557.987C444.278 558.522 444.06 559.165 443.417 559.315C422.559 564.204 400.561 564.14 379.248 563.075L377.65 562.993C371.387 562.664 365.131 562.233 358.877 561.758C359.438 556.923 360.055 551.848 360.692 546.6C364.644 514.092 369.405 474.915 366.677 444.676C366.439 442.033 362.288 442.017 362.528 444.676C365.261 474.969 360.478 514.287 356.523 546.796C356.044 550.735 355.577 554.576 355.136 558.288L354.766 561.441C340.075 560.287 325.398 558.958 310.68 558.19C299.942 557.629 289.203 558.777 278.464 559.925C270.675 560.758 262.887 561.591 255.099 561.771C255.075 560.645 254.931 543.6 254.689 541.973L254.674 541.893C254.619 541.671 254.516 541.36 254.397 540.998C253.91 539.525 253.144 537.206 254.142 536.589C254.798 536.183 256.642 536.52 257.923 536.755C258.355 536.834 258.723 536.901 258.959 536.924L262.735 537.294C263.365 537.355 263.994 537.415 264.623 537.474L264.786 537.489C267.646 537.738 270.501 537.419 272.111 534.689C273.507 532.322 273.187 529.255 271.776 526.982C271.043 525.801 270.056 524.765 269.063 523.803C268.162 522.931 266.687 521.91 266.603 520.525C266.455 518.088 272.998 516.476 275.944 515.844L276.86 515.653C277.237 515.577 277.103 515.065 276.776 515.033C272.133 514.575 262.684 514.202 262.323 520.814C262.175 523.52 263.533 525.703 265.034 527.804L265.313 528.19C265.339 528.225 265.371 528.268 265.407 528.316C265.86 528.916 267.028 530.461 266.479 531.033C266.499 531.011 264.299 530.688 263.395 530.563L262.218 530.409C261.86 530.36 261.492 530.307 261.117 530.254C255.639 529.469 248.577 528.458 246.928 535.212C246.243 538.014 247.543 546.46 248.217 549.175L248.223 549.2C248.377 549.927 249.762 559.423 250.046 561.558L250.096 561.956C226.323 562.649 200.481 564 176.734 565.005L174.801 565.086C150.315 566.098 125.8 566.643 101.299 565.622L101.254 565.621C101.059 565.614 100.673 565.609 100.146 565.602C96.2321 565.551 84.4926 565.396 84.5465 563.812C84.6601 560.481 93.2036 520.803 95.4453 510.066L95.7445 508.621C95.8452 508.132 95.8177 507.63 95.7907 507.126C95.7772 506.88 95.7637 506.635 95.7653 506.39C94.3436 509.694 92.0257 512.718 89.6242 515.094C84.6813 519.979 78.6441 523.916 72.5912 527.293C59.1318 534.808 44.0386 536.203 29.7649 530.519C27.0108 529.907 24.475 528.683 22.1094 527.116C16.9435 523.698 12.6801 518.953 9.57843 513.605C2.94107 502.182 1.05725 487.788 0.290649 474.726L0.211334 473.315C-0.540741 459.089 0.792206 444.996 2.98099 430.945C7.80978 399.976 15.1489 369.406 19.3501 338.337C18.8677 337.86 18.4684 337.3 18.1676 336.631C17.4777 335.096 18.3232 333.737 19.9518 333.524C21.5669 333.312 22.9865 333.678 24.4725 334.062C24.9092 334.175 25.3521 334.289 25.8075 334.391C26.0409 334.442 26.2743 334.489 26.5129 334.526L26.4377 334.238C25.9662 332.306 26.1291 330.276 26.2899 328.276C26.3371 327.687 26.3837 327.102 26.4143 326.522C26.5648 323.675 26.7151 320.827 26.7982 317.974C26.9537 312.466 26.8812 306.948 26.3417 301.461C25.792 295.869 24.6457 290.366 22.7733 285.07C21.0202 280.096 18.5617 275.387 17.1147 270.304C14.3138 260.481 16.9643 250.828 22.5503 242.539C26.2271 237.083 31.4195 233.027 37.1715 229.92C40.3146 214.547 38.8675 198.459 45.0811 183.765C46.466 180.497 48.0894 176.705 50.7865 174.293ZM55.7247 178.941L55.7086 178.868C55.5116 178.926 55.3404 179.05 55.1952 179.242C54.5312 180.077 53.9452 180.86 53.4006 181.793C49.3197 188.81 47.8379 196.704 46.2591 204.547L45.9733 205.958C44.521 213.048 43.8052 220.263 42.4671 227.374C43.5355 226.917 44.6092 226.487 45.688 226.078C48.6963 224.946 52.0053 223.883 55.3139 223.567C54.4535 220.953 54.2564 217.965 53.9244 215.419L53.8409 214.752C53.2766 210.079 53.1796 205.211 53.4317 200.517C53.691 195.637 54.4846 190.787 55.0862 185.943L55.1252 185.641C55.192 185.143 55.274 184.63 55.357 184.109C55.6298 182.398 55.9171 180.599 55.7346 178.982C55.7315 178.968 55.7278 178.954 55.7247 178.941ZM57.9073 227.872C61.9269 227.872 65.7241 229.184 68.7635 232.757C67.6795 233.79 66.8133 234.988 66.3356 236.393C64.8475 235.579 63.2708 234.942 61.6577 234.49C56.7356 233.115 50.0033 233.136 45.8643 236.513C43.6963 238.276 46.077 241.44 48.411 240.895C50.5012 240.408 52.3166 239.505 54.5105 239.402C56.414 239.308 58.2812 239.557 60.1069 240.107C62.8922 240.948 65.4233 242.539 67.2853 244.733C67.9077 245.47 68.4523 246.269 68.9087 247.13C72.3838 253.727 69.7645 263.188 64.9668 268.618C66.8496 262.363 64.972 254.987 61.2221 249.807C56.7076 243.568 49.955 242.861 42.8416 243.835L42.6066 243.867C35.7244 244.838 27.2027 246.533 22.0576 251.59C22.571 250.423 23.1623 249.293 23.8267 248.198C27.7266 241.777 34.1943 236.767 40.9059 233.193C42.0314 232.586 43.1673 232.026 44.298 231.507C48.5977 229.531 53.3902 227.872 57.9073 227.872ZM93.9188 247.726C93.2912 239.899 88.8929 231.772 79.8059 233.105C76.7613 233.551 70.0031 235.895 71.4294 240.003C71.4865 240.17 71.5487 240.33 71.6213 240.48C72.1815 241.082 72.7002 241.72 73.167 242.394C75.5497 244.156 79.4786 243.933 82.4978 243.761C82.8406 243.742 83.172 243.723 83.4879 243.708L83.8671 243.691C86.227 243.603 86.7716 247.332 84.4272 247.845C81.7042 248.447 78.7582 248.909 75.9418 248.587C76.0767 249.127 76.1856 249.671 76.2686 250.216C76.3983 250.242 76.5227 250.268 76.6524 250.288C77.5912 250.444 78.5403 250.439 79.4843 250.361C81.1389 250.237 82.3162 252.067 81.9117 253.551C81.4708 255.143 79.6399 255.818 78.2136 255.05C77.6166 254.734 77.0466 254.381 76.4968 253.986C76.2478 261.077 72.1919 267.83 64.7386 269.868C64.666 269.889 64.5986 269.884 64.5415 269.858C63.7376 271.901 62.4617 273.753 60.8694 275.252C63.1619 275.558 65.4129 277.498 66.6525 279.188C68.9813 282.383 69.806 287.378 67.1556 290.532C65.3455 292.689 62.2179 291.217 61.4083 289.017C60.9384 287.747 60.9171 286.296 60.8958 284.847C60.8803 283.806 60.8652 282.765 60.6826 281.793C60.3507 280.024 59.5831 278.385 59.1059 276.678C56.7667 278.296 53.9659 279.22 51.0349 279.095C47.7367 278.955 44.049 277.337 42.7627 274.09C42.327 272.996 42.2648 271.953 42.3945 270.931C39.4173 272.944 34.5782 274.106 31.7203 272.124C30.6311 271.367 30.3977 269.598 31.7203 268.893C33.1534 268.128 34.4413 268.049 35.9184 268.034L36.9588 268.027C37.685 268.019 38.408 267.971 39.13 267.922C40.3016 267.843 41.4713 267.765 42.6486 267.861C42.8198 267.877 42.9806 267.923 43.1252 267.996C43.3695 267.238 43.6185 266.476 43.7949 265.698C42.5086 265.413 41.2741 264.946 40.0916 264.246C39.5055 263.893 38.9505 263.131 39.0387 262.404C39.3712 259.654 41.9785 260.337 44.228 260.927C45.0324 261.137 45.7907 261.336 46.383 261.362L46.4966 261.369C47.7346 261.472 48.7077 262.433 48.7326 263.706C48.7637 265.159 48.4888 266.528 48.0687 267.918C47.9883 268.181 47.8778 268.477 47.7606 268.792C47.3555 269.877 46.8659 271.189 47.2232 272.145C48.2502 274.852 52.8093 274.329 54.8062 273.473C61.2464 270.723 61.7241 262.967 59.6412 257.156L59.5105 256.803C58.3383 253.738 56.3933 250.543 53.3072 249.106C50.4556 247.783 47.0931 247.951 44.0065 248.298L43.2191 248.39C39.5159 248.836 35.8074 249.589 32.1871 250.506C28.7743 251.367 25.4289 252.389 21.8968 252.519C21.8185 252.524 21.7521 252.493 21.6997 252.451C20.5742 255.226 19.9103 258.162 19.8117 261.18C19.6556 265.932 21.0928 270.407 22.8356 274.764C24.599 279.173 26.5077 283.483 27.7577 288.073C28.9973 292.601 29.7914 297.265 30.2991 301.927C30.8853 307.254 31.0305 312.622 30.963 317.974C30.9268 320.827 30.8386 323.675 30.6933 326.522L30.6804 326.806C30.6607 327.261 30.6487 327.722 30.6363 328.186C30.5798 330.341 30.5217 332.562 29.7027 334.526C29.6353 334.691 29.5419 334.841 29.433 334.976C29.7219 335.013 30.0113 335.047 30.3007 335.08L33.0943 335.388C36.9713 335.8 40.8608 336.104 44.7544 336.247C48.7845 336.392 52.939 336.356 56.9327 335.796C59.8268 335.391 62.5343 334.629 65.2573 333.789C63.9881 331.09 64.8418 327.694 65.5923 324.709C65.6618 324.433 65.7303 324.161 65.7962 323.892L66.0451 322.864C67.0565 318.748 68.3584 314.716 70.1068 310.848C71.9429 306.787 74.1887 303.052 76.8184 299.453L77.0912 299.077L78.1083 297.682C79.656 295.57 81.3588 293.372 83.3484 291.74C83.9293 290.62 84.4479 289.453 84.9614 288.291C86.6471 284.443 88.032 280.449 89.3079 276.45C90.1014 273.96 90.8587 271.429 91.533 268.868C93.3327 261.958 94.4842 254.832 93.9188 247.726ZM271.414 271.694C272.058 267.831 268.69 263.554 264.654 265.729C263.093 266.57 262.574 268.758 263.469 270.25L263.56 270.407C263.654 270.562 263.757 270.711 263.865 270.856L263.86 270.873C263.538 271.214 263.429 272.032 263.372 272.652L263.318 273.297C263.212 274.893 263.607 276.405 264.677 277.642C266.766 280.057 269.581 280.235 272.504 279.97L273.041 279.917C273.161 279.905 273.307 279.875 273.466 279.843C273.815 279.773 274.222 279.691 274.526 279.748C274.597 279.836 274.792 280.044 274.83 280.268C275.009 281.307 274.882 282.33 274.623 283.346C274.478 283.917 274.318 284.486 274.158 285.054C273.461 287.531 272.766 290.002 273.297 292.62C273.889 295.541 275.984 298.017 278.87 298.89C280.96 299.521 283.067 299.303 285.18 299.085C285.756 299.025 286.333 298.966 286.91 298.923C289.685 298.719 291.698 299.244 291.941 302.401C292.028 303.533 291.777 304.686 291.528 305.834C291.145 307.597 290.765 309.349 291.613 310.998C291.788 311.339 292.177 311.414 292.519 311.367C295.979 310.884 297.89 306.186 298.237 303.133C298.622 299.753 297.415 296.061 294.691 293.924C292.053 291.855 288.715 291.861 285.541 292.182L285.452 292.191C285.163 292.223 284.854 292.266 284.537 292.31C282.349 292.613 279.743 292.975 280.212 290.026C280.426 288.684 280.848 287.427 281.269 286.175C281.883 284.348 282.493 282.531 282.443 280.48C282.359 277.012 280.647 273.627 277.165 272.51C275.69 272.037 274.261 272.126 272.787 272.297L271.849 272.412C271.646 272.464 271.442 272.5 271.236 272.525C271.304 272.234 271.359 271.98 271.383 271.863L271.414 271.694ZM161.378 290.894C164.915 289.948 168.638 291.237 171.072 293.908C173.116 296.154 174.175 298.911 175.121 301.729L175.662 303.351C176.448 305.646 177.352 307.468 180.162 306.593C181.232 306.26 182.258 305.854 183.276 305.451C185.689 304.497 188.051 303.562 190.805 303.671C194.366 303.811 197.851 305.343 200.331 307.91C202.867 310.536 204.077 314.195 203.539 317.8L203.504 318.021C203.223 319.681 200.794 325.609 198.22 322.88C197.071 321.663 197.297 320.316 197.025 318.77C196.765 317.297 196.21 315.852 195.301 314.658C193.689 312.541 191.096 311.716 188.561 312.465C185.218 313.453 182.265 315.489 178.664 315.537C174.875 315.588 171.658 313.623 169.568 310.539C167.881 308.049 167.28 305.134 166.092 302.427L165.978 302.169C164.981 299.941 164.302 299.136 162.019 300.202L161.221 300.585C157.802 302.208 153.958 303.695 150.423 301.405C147.139 299.278 145.739 295.003 148.501 291.891C150.025 290.172 153.552 290.465 154.543 292.669C154.716 293.048 154.878 293.433 155.036 293.818C155.339 293.726 155.633 293.614 155.912 293.457C157.765 292.622 159.374 291.431 161.378 290.894ZM357.48 310.167C362.865 304.628 372.21 307.631 375.893 313.507C376.657 314.725 375.395 316.27 374.054 315.9C373.161 315.654 372.165 315.206 371.12 314.736C368.415 313.52 365.38 312.156 362.936 313.752C360.912 315.075 361.407 318.118 361.796 320.504C361.889 321.079 361.976 321.614 362.021 322.08L362.054 322.437C362.345 325.703 362.411 330.171 359.867 332.615C358.404 334.022 356.158 333.832 354.228 333.631L353.614 333.567C351.338 333.338 349.077 332.937 346.897 332.237C344.893 331.594 342.994 330.72 341.111 329.794L340.64 329.561C340.547 329.515 340.43 329.454 340.294 329.383C339.211 328.816 336.934 327.624 336.195 328.539C335.793 329.036 336.684 331.088 336.997 331.808C337.022 331.866 337.043 331.916 337.06 331.955C337.904 333.929 338.978 335.787 339.752 337.797C341.117 341.337 341.231 345.33 339.315 348.708C337.458 351.982 333.434 354.634 329.869 352.119C327.827 350.679 327.833 348.06 329.869 346.619C330.946 345.857 332.032 345.354 332.477 344.075C333.058 342.408 332.31 340.639 331.587 339.095L330.721 337.258C328.802 333.157 326.884 328.441 329.565 324.249C332.334 319.92 337.961 319.852 342.217 321.655C344.647 322.684 346.864 324.064 349.395 324.86C351.147 325.412 352.905 325.78 354.699 325.982C354.954 324.605 354.816 323.123 354.682 321.674C354.605 320.851 354.53 320.039 354.528 319.262C354.518 316.004 355.125 312.591 357.48 310.167ZM96.6579 346.31C96.0998 343.33 92.6942 342.78 90.4106 343.769C89.1943 344.295 87.6087 345.782 86.1585 346.261L86.0812 346.087C85.9464 344.979 85.2016 343.895 84.0667 343.681C78.3033 342.59 76.253 349.336 80.0331 353.097C82.047 355.101 85.185 355.479 87.8302 354.762C88.5247 354.575 89.1694 354.297 89.7907 353.976C90.7638 357.077 92.1787 360.007 94.5718 362.321C98.3607 365.986 103.502 366.987 108.46 365.274C109.134 365.041 109.969 364.636 110.888 364.19C114.087 362.637 118.293 360.596 120.161 363.669C121.455 365.798 122.043 368.4 122.76 370.762L122.818 370.957C123.494 373.232 123.992 375.657 125.958 377.133C126.555 377.581 127.535 377.347 128.021 376.867C131.35 373.582 129.295 365.837 127.774 361.788L127.61 361.358C125.724 356.539 121.754 353.455 116.424 353.96C113.797 354.209 111.458 355.108 109.059 356.156C108.807 356.266 108.546 356.385 108.278 356.508C106.421 357.353 104.223 358.355 102.277 357.642C98.7165 356.337 97.66 351.808 96.9966 348.186L96.6579 346.31ZM263.839 352.792C265.194 350.406 269.744 351.259 269.367 354.289L269.247 355.232C269.092 356.522 269.059 357.735 269.95 358.883C271.032 360.276 272.884 360.697 274.565 360.484C276.049 360.296 277.308 359.613 278.557 358.936C280.303 357.99 282.027 357.055 284.311 357.504C287.49 358.13 289.686 360.731 290.957 363.568C292.303 366.572 292.275 369.829 293.277 372.922C294.432 376.479 296.894 376.316 299.968 375.071L300.63 374.799C300.806 374.726 300.981 374.653 301.156 374.58C303.925 373.421 306.718 372.252 309.8 372.802C315.244 373.773 319.931 382.143 314.831 386.184C313.911 386.913 312.302 386.533 312.341 385.153L312.346 384.892C312.372 382.381 311.739 379.141 308.861 378.549C306.858 378.138 304.683 379.196 302.624 380.199C301.547 380.724 300.502 381.232 299.529 381.508C292.19 383.584 288.01 378.06 286.763 371.528L286.718 371.278C286.32 368.991 286.005 364.76 283.614 363.689C282.657 363.261 281.653 363.944 280.76 364.552C280.463 364.754 280.179 364.948 279.912 365.089C278.256 365.968 276.479 366.526 274.606 366.668C267.675 367.197 259.8 359.908 263.839 352.792ZM66.7645 354.153C66.7521 351.483 70.9014 351.48 70.9139 354.153C71.0669 387.981 86.8925 419.25 89.7353 452.742C89.9604 455.402 85.81 455.387 85.5859 452.742C82.7421 419.24 66.9175 388.036 66.7645 354.153ZM246.222 387.13C241.865 381.685 235.489 375.994 228.065 379.326C225.343 380.548 223.296 382.996 222.68 385.93C222.21 388.167 222.549 390.322 222.891 392.5C223.032 393.397 223.173 394.298 223.259 395.211C223.917 402.213 215.563 398.664 211.107 396.772C210.515 396.521 209.991 396.298 209.567 396.134L209.355 396.053C203.548 393.914 195.421 394.697 192.71 401.158C191.353 404.393 192.315 407.566 193.523 410.648L193.806 411.368C194.593 413.418 194.385 413.744 193.549 415.047C193.343 415.37 193.098 415.752 192.82 416.235C191.825 417.963 192.317 420.652 194.224 421.59C199.13 424.001 203.276 419.964 203.3 414.995C203.31 413.002 202.763 411.118 201.941 409.323C201.734 408.871 201.418 408.374 201.089 407.855C200.418 406.8 199.692 405.656 199.717 404.633C199.799 401.295 205.726 402.761 207.351 403.321L207.654 403.427C208.528 403.738 209.391 404.079 210.253 404.42C213.16 405.568 216.047 406.708 219.274 406.632C222.901 406.546 226.774 405.139 228.759 401.922C230.861 398.514 230.214 394.721 229.37 391.057L229.137 390.056C228.342 386.497 229.331 383.886 233.321 383.198C237.544 382.47 241.342 384.859 244.781 387.022C244.932 387.117 245.082 387.211 245.231 387.305L245.809 387.666C246.164 387.884 246.446 387.411 246.222 387.13ZM40.1118 398.669C40.1056 398.439 40.3888 398.262 40.5875 398.396C45.202 401.498 48.2891 407.975 46.5552 413.494C45.7134 416.173 43.923 418.523 41.4095 419.824C38.2845 421.44 34.8339 420.825 31.5507 420.134L30.156 419.835C29.1732 419.628 28.2032 419.477 27.2027 419.753C26.8594 419.848 26.461 420.147 26.1348 420.211C26.2696 420.441 26.4128 420.838 26.4854 420.986L26.7235 421.464C26.9621 421.949 27.1949 422.454 27.3412 422.963C27.8319 424.672 27.7105 426.507 26.9159 428.102C25.4356 431.073 22.3309 432.748 19.0986 433.032C18.5016 433.085 17.623 432.96 16.6603 432.822C14.5198 432.516 11.9648 432.151 11.1733 433.56C8.89636 437.615 2.41251 434.888 3.67288 430.397C4.52505 427.362 6.94257 425.4 9.93787 424.579C11.5338 424.142 13.1858 424.201 14.8087 424.38C15.4445 424.45 16.0784 424.548 16.7148 424.616L17.1894 424.66C17.1458 424.655 17.4305 424.645 17.8055 424.632C18.236 424.617 18.7848 424.597 19.0913 424.577L18.9678 424.244C18.9497 424.197 18.9331 424.156 18.9181 424.125C18.2728 422.745 17.7946 421.37 17.8335 419.828C17.9046 417.047 19.7043 414.621 22.069 413.282C24.2489 412.048 26.8448 411.555 29.323 411.83C30.2484 411.933 31.3064 412.25 32.4044 412.579C34.5398 413.219 36.8286 413.905 38.5973 413.154C40.6154 412.297 41.3006 409.309 41.3317 407.351C41.3566 405.796 41.0387 404.284 40.7207 402.771C40.436 401.414 40.1507 400.058 40.1118 398.669ZM417.381 409.06C414.781 407.82 411.581 407.053 409.396 409.527C407.465 411.716 407.948 414.685 408.57 417.351L409.26 420.245C409.597 421.647 409.937 423.047 410.249 424.456C410.337 424.854 410.441 425.26 410.546 425.671C409.679 425.337 408.774 424.964 407.849 424.582C401.076 421.786 393.197 418.533 390.658 427.092C389.651 430.49 390.796 433.572 392.116 436.6L392.826 438.212C393.019 438.653 393.167 439.648 393.387 440.295C393.283 440.27 393.181 440.244 393.084 440.219C393.067 440.134 392.358 439.673 391.946 439.404L391.595 439.17C390.288 438.339 388.23 438.99 387.527 440.321C385.64 443.891 388.278 447.995 391.922 448.97C395.757 449.997 399.737 448.281 401.421 444.663C403.203 440.834 401.622 437.334 400.056 433.866C399.894 433.51 399.733 433.154 399.577 432.799L399.412 432.423C399.118 431.742 398.982 431.071 398.843 430.388L398.736 429.873C399.406 430.375 400.903 430.575 401.711 430.861L408.494 433.265L408.877 433.404C409.056 433.47 409.236 433.537 409.417 433.605C411.118 434.244 412.911 434.917 414.717 434.52C420.105 433.333 418.971 427.723 417.804 423.868L417.524 422.948C416.962 421.11 416.383 419.273 415.74 417.461C415.417 416.552 415.036 415.664 414.709 414.758C414.53 414.316 414.378 413.865 414.253 413.406C416.25 413.723 418.244 414.617 420.159 415.232C422.708 416.051 425.265 416.617 427.892 417.122C428.929 417.321 429.485 416.028 428.604 415.433C425.022 413.014 421.285 410.922 417.381 409.06ZM280.332 446.321C277.78 444.443 274.545 447.022 274.427 449.709C274.223 454.324 279.605 456.333 283.435 455.715C284.179 455.595 284.909 455.333 285.607 455.082C287.447 454.421 289.065 453.84 290.146 456.158C291.51 459.08 291.308 462.573 292.02 465.671C292.81 469.113 294.557 472.473 297.728 474.263C302.051 476.7 306.115 475.191 310.223 473.665C312.147 472.95 314.081 472.232 316.056 471.914C318.999 471.441 321.061 472.846 321.649 475.813C322.218 478.688 321.265 481.367 320.314 484.038C319.849 485.345 319.384 486.652 319.099 487.977C319.034 488.276 319.349 488.564 319.635 488.389C326.163 484.376 330.065 474.457 324.1 468.212C319.707 463.611 314.266 465.343 309.053 467.001C307.716 467.427 306.394 467.848 305.108 468.155L304.946 468.193C301.78 468.896 300.094 467.615 299.56 464.334C298.996 460.873 299.391 457.43 298.19 454.055C296.902 450.433 294.392 447.021 290.437 446.153C288.139 445.649 286.069 446.199 283.916 446.882L283.095 447.146C282.626 447.295 282.184 447.42 281.709 447.421L281.546 447.245C281.149 446.927 280.744 446.619 280.332 446.321ZM133.071 470.807C136.64 468.933 141.04 469.645 144.255 471.916C147.86 474.462 149.629 478.374 150.833 482.507C151.708 485.517 152.128 489.668 154.644 491.847C157.038 493.921 160.757 492.499 163.723 491.365C164.385 491.112 165.009 490.873 165.573 490.691C169.313 489.482 173.807 488.987 177.456 490.775C181.033 492.529 182.756 496.105 183.125 499.937C183.47 503.512 182.958 508.221 180.918 511.214C180.717 511.508 180.334 511.432 180.207 511.12C178.866 507.819 179.124 504.042 178.036 500.625C176.873 496.979 174.149 496.207 170.691 497.188C167.083 498.211 163.78 500.126 160.07 500.807C156.115 501.534 152.198 500.785 149.08 498.171C146.457 495.972 144.868 492.769 143.794 489.577C142.748 486.466 142.578 482.3 140.349 479.717C139.787 479.066 138.807 478.278 137.898 478.195C136.939 478.106 136.414 478.586 135.801 479.147C135.55 479.377 135.283 479.621 134.966 479.845C132.085 481.877 127.488 481.918 125.724 478.343C125.147 477.172 124.861 475.511 125.724 474.365C127.238 472.357 128.482 472.374 130.48 472.808C130.543 472.754 130.614 472.685 130.694 472.592L130.755 472.518C131.284 471.848 132.31 471.207 133.071 470.807ZM19.5493 483.649C17.861 482.131 15.2957 481.841 13.4067 483.188C12.2148 484.038 11.7138 485.155 11.886 486.573L11.9067 486.726L12.1085 487.663C12.2392 488.253 12.3984 488.914 12.4954 489.092C12.7604 489.576 13.123 490.012 13.4135 490.483C14.2169 491.785 14.9077 493.15 15.9928 494.256C18.7163 497.035 22.8698 497.051 25.9766 494.954C26.6006 494.534 27.8925 493.031 28.8941 492.509C28.7432 492.689 28.961 492.979 29.2193 493.323C29.3848 493.544 29.5673 493.786 29.6799 494.037C31.0014 496.973 31.0263 500.207 32.7166 503.066C34.5865 506.229 38.0169 508.281 41.7326 508.059C44.6699 507.883 47.0588 506.408 49.3783 504.797L50.8062 503.794L50.9587 503.688C52.9156 502.317 55.1366 500.761 57.2823 502.72C58.7532 504.063 58.4456 505.829 58.1386 507.59C57.9706 508.555 57.803 509.518 57.928 510.41C58.0613 511.358 59.1209 511.865 59.9441 511.945C64.0535 512.342 66.2371 506.652 66.1867 503.391C66.1188 498.967 63.2246 495.171 59.1847 493.562C55.1039 491.937 50.9748 492.868 47.341 495.123C45.7923 496.085 44.3737 497.247 42.7933 498.159C42.1004 498.559 41.4002 498.903 41.0916 498.729C40.2519 498.254 39.9982 496.312 39.8037 495.354L39.7622 495.165C39.2788 493.109 38.8639 491.141 37.8945 489.235C35.8505 485.216 31.5959 482.082 26.9144 483.34C25.1177 483.822 23.6587 484.904 22.2624 486.084L22.1701 486.16C22.1379 486.186 22.1047 486.213 22.0705 486.24L21.8563 486.406C21.1732 485.372 20.1183 484.195 19.6499 483.743L19.5493 483.649ZM394.675 511.675L395.603 511.124C398.64 509.332 401.769 507.679 405.448 508.509C408.953 509.299 411.44 512.144 412.747 515.351C413.364 516.866 413.686 518.394 413.924 520.009C414.058 520.912 414.148 521.823 414.307 522.723L414.36 523.002C414.432 523.36 414.542 523.86 414.642 524.292C415.598 523.871 416.561 523.203 417.344 522.807L417.975 522.49C419.457 521.752 420.998 521.051 422.612 520.709C426.109 519.97 429.988 521.039 431.987 524.172C433.697 526.85 433.662 530.008 433.008 533.01L432.961 533.219C432.677 534.465 431.211 539.454 429.078 538.727C427.004 538.019 426.727 535.261 426.57 533.424L426.558 533.249C426.547 533.025 426.544 532.762 426.542 532.475C426.528 530.986 426.509 528.868 425.193 528.427C423.767 527.949 421.381 529.408 419.53 530.541C418.838 530.964 418.22 531.342 417.755 531.555C414.703 532.957 411.35 533.37 408.866 530.643C406.639 528.198 406.451 524.619 405.875 521.519L405.726 520.738C405.42 519.162 404.828 516.645 403.085 516.709C401.66 516.762 400.096 518.238 398.921 518.939C397.625 519.712 396.279 520.357 394.873 520.907C391.59 522.19 387.94 522.6 384.448 522.221C382.425 522.002 381.107 521.036 380.392 519.134C380.15 518.575 379.965 517.999 379.837 517.403C378.704 513.143 384.899 510.102 387.183 513.913C389.818 513.813 392.271 513.104 394.675 511.675Z" fill="black"/>
<path d="M141.502 123.963C142.619 114.152 141.174 93.6459 141.077 92.4C140.465 84.5241 144.155 53.4233 151.131 56.289C162.834 47.0251 178.42 44.9794 192.994 44.0023C223.268 41.9722 255.473 46.6324 278.849 67.0057C290.41 77.5859 301.665 92.9742 300.76 108.997C311.263 124.185 326.071 145.018 312.984 162.773C308.536 168.446 301.465 170.559 295.877 174.855C284.637 183.921 277.585 196.932 266.238 205.945C236.176 232.958 185.13 238.601 155.594 207.876C132.755 185.623 136.448 152.332 140.465 123.963C143.166 104.89 139.324 143.102 141.502 123.963Z" fill="white"/>
<path fill-rule="evenodd" clip-rule="evenodd" d="M208.757 0.0542484C217.025 -0.251765 225.339 0.76482 233.435 2.39862C249.504 5.6351 265.961 10.9307 280.515 18.524C286.626 21.7138 292.264 25.653 297.348 30.1909C301.944 27.9933 309.195 27.8148 310.668 32.8542C311.091 34.3008 310.88 35.612 310.274 36.7333C310.45 36.8339 310.625 36.9418 310.796 37.0564C311.956 37.8328 312.575 38.3977 313.292 39.1107L313.859 39.6788C315.654 41.4791 315.823 44.8105 313.859 46.588L313.59 46.8307L313.425 46.9749C313.091 47.256 312.731 47.4937 312.357 47.6907C319.24 58.2395 323.912 70.2612 325.846 82.8233C326.982 90.1987 327.314 97.5741 326.458 104.996C326.043 108.622 325.421 112.491 324.151 115.919C323.533 117.595 322.662 119.223 321.879 120.831C321.028 122.584 319.633 123.865 318.487 125.432C318.362 125.593 318.165 125.676 317.973 125.681C318.32 126.396 318.637 127.123 318.932 127.844C320.629 131.988 321.935 136.453 322.693 140.867C324.119 149.192 323.248 158.554 316.91 164.783C314.384 167.262 310.473 169.249 306.629 169.778C307.859 171.043 308.85 172.547 309.643 174.28C311.126 177.511 308.653 181.883 304.721 180.68C303.974 180.452 303.233 180.161 302.506 179.84C301.376 182.086 298.958 183.605 296.365 183.216C294.856 182.988 293.767 182.402 293.02 181.577C291.148 185.716 288.663 189.477 285.515 192.796C282.185 196.313 278.508 199.482 275.188 203.009C271.962 206.432 270.048 210.903 266.246 213.724C265.064 214.601 263.253 213.667 262.921 212.371C261.633 207.325 265.104 203.123 268.397 199.653L268.813 199.217C272.346 195.545 276.427 192.48 280.188 189.057C284.093 185.499 287.237 181.723 290.069 177.262C290.314 176.878 290.557 176.487 290.802 176.091L291.915 174.285C291.972 174.02 292.035 173.761 292.107 173.507C292.164 172.485 292.506 171.515 293.165 170.623C293.98 169.518 295.068 168.683 296.282 168.294C296.692 167.859 297.118 167.444 297.563 167.06C297.009 166.453 296.521 165.737 296.106 164.907C295.338 163.362 296.235 160.903 298.289 161.106C298.906 161.165 299.512 161.137 300.118 161.109C300.78 161.078 301.442 161.048 302.117 161.132C302.279 161.152 302.44 161.173 302.602 161.194C303.71 161.341 304.816 161.487 305.935 161.334C308.232 161.007 310.291 159.762 311.785 158.02C315.525 153.663 315.919 147.397 315.136 141.962C314.79 139.535 314.198 137.15 313.57 134.778L312.598 131.145C312.044 129.115 311.377 127.012 310.073 125.359C305.983 120.172 298.975 124.242 294.78 127.365L294.399 127.652C294.363 127.678 294.332 127.688 294.296 127.688C294.073 128.051 293.834 128.409 293.585 128.751C292.211 130.608 290.546 132.257 288.829 133.813L288.479 134.133C288.244 134.345 288.006 134.555 287.771 134.763C285.763 136.531 283.046 135.229 282.781 132.698C282.289 127.927 282.423 123.103 282.118 118.31C281.812 113.513 281.261 108.731 280.442 103.995C279.623 99.265 278.564 94.5814 277.273 89.9653C276.625 87.6521 275.915 85.3647 275.157 83.0878C274.581 81.3347 274.151 78.4924 272.631 77.2735C271.256 76.1636 268.668 75.9769 266.983 75.619C264.628 75.1159 262.258 74.6698 259.898 74.1667C255.484 73.2176 251.075 72.1854 246.729 70.9614C242.424 69.7477 238.155 68.3162 234.021 66.5942C235.209 68.5859 236.387 70.5827 237.554 72.5848C239.151 75.3285 237.056 78.259 234.156 78.5028C231.18 78.7517 228.166 78.5287 225.262 77.8233C224.644 77.6729 224.078 77.5018 223.555 77.2995C220.365 77.0707 217.11 76.343 214.113 75.6045L212.714 75.2559C207.02 73.8244 201.548 71.869 196.153 69.561C195.549 69.3027 194.944 69.0392 194.34 68.771C192.102 68.0957 189.898 67.311 187.738 66.4184C179.727 67.6305 171.556 67.1606 163.685 65.2249C160.288 64.3899 156.595 63.3422 153.083 61.8899C151.335 64.8722 148.654 67.2892 145.662 69.0423C145.334 71.6304 145.153 74.2445 145.034 76.8379C144.65 85.1054 144.215 93.3729 143.763 101.635L143.618 104.311C142.765 120.367 142.242 136.449 142.119 152.522C142.005 167.169 142.902 181.629 150.838 194.368C157.523 205.114 167.954 213.667 180.064 217.505C187.503 219.86 195.386 220.617 203.151 219.865C206.942 219.497 210.697 218.631 214.323 217.469L214.844 217.305C218.485 216.181 221.951 215.626 225.749 215.166C228.259 214.86 228.866 218.117 227.605 219.648C224.939 222.874 222.092 225.026 218.13 226.489C214.551 227.806 210.754 228.641 206.983 229.186C199.203 230.306 191.356 230.182 183.669 228.423C169.406 225.166 156.798 216.598 148.016 204.974C138.374 192.21 135.268 176.951 135.065 161.23C134.847 144.408 135.681 127.504 136.792 110.71L137.025 107.237C137.523 99.9704 138.052 92.6779 138.878 85.427C137.513 85.5618 136.081 85.1365 134.92 83.9695C132.656 81.7061 132.12 78.2222 131.851 75.076L131.782 74.2082C131.564 71.3089 132.005 68.3421 132.798 65.5569C133.892 61.7426 135.725 58.531 138.314 55.8417C134.846 52.1042 132.978 46.8146 132.566 41.8209C132.269 38.2224 131.993 33.4927 135.964 31.8158C136.748 31.4844 137.56 31.362 138.376 31.3791C138.167 30.0975 138.025 28.8003 137.946 27.4876C137.818 25.4005 139.96 23.1126 142.104 23.3284C142.755 23.3942 143.407 23.4643 144.058 23.5322C143.669 22.9093 143.277 22.2879 142.876 21.6728C141.188 19.0914 143.469 16.2133 146.135 15.9929C153.219 15.4073 160.232 13.9545 166.991 11.7538C173.781 9.54222 180.875 7.31662 187.324 4.23833C187.779 4.02101 188.281 4.1818 188.593 4.49507C194.02 0.87763 201.899 0.327637 208.12 0.0790069L208.757 0.0542484ZM300.494 136.945C302.902 135.825 306.163 134.308 308.668 135.126C309.814 135.499 310.152 136.713 309.633 137.605H309.674L309.567 137.777C309.091 138.502 308.479 138.993 307.809 139.46L307.496 139.674C308.336 140.271 308.979 141.132 309.259 142.231C309.71 143.979 308.979 146.127 307.32 147.003C306.655 147.351 305.935 147.542 305.183 147.579C304.122 147.625 303.237 147.137 302.434 146.526L302.195 146.339C301.842 146.059 301.557 145.686 301.329 145.281C299.394 147.781 297.766 150.732 294.348 150.826C292.714 150.872 290.868 149.57 290.53 147.916C290.494 147.755 290.463 147.594 290.431 147.439C290.115 145.888 290.343 144.073 291.614 142.963C294.166 140.743 296.801 138.642 299.897 137.221C300.089 137.133 300.288 137.04 300.494 136.945Z" fill="black"/>
<path fill-rule="evenodd" clip-rule="evenodd" d="M160.283 95.2754C163.236 94.763 166.462 94.7464 169.369 95.5623C171.655 96.2033 175.25 97.6613 176.238 99.9969C176.438 100.468 176.434 101.195 175.86 101.44C175.084 101.697 173.73 101.831 173.871 101.542C173.205 101.471 172.534 101.341 171.858 101.21C170.796 101.005 169.724 100.798 168.658 100.815C166.391 100.853 164.275 101.25 162.163 102.097C160.262 102.859 158.48 103.948 156.963 105.328C155.124 107 154.102 109.511 151.931 110.765C149.267 112.302 146.181 110.318 146.041 107.385C145.872 103.873 149.012 100.988 151.643 99.0051L151.923 98.7961C154.334 97.0114 157.331 95.7879 160.283 95.2754ZM236.559 101.905C231.855 97.7409 223.308 93.7197 216.965 95.7689C213.318 96.9468 211.728 102.823 215.799 104.685C220.514 106.842 225.949 105.964 230.747 108.2C232.762 109.139 234.657 110.313 236.06 112.034C237.165 113.391 238.29 115.176 239.888 115.959C240.309 116.164 240.878 116.17 241.214 115.788C244.718 111.824 239.618 104.613 236.559 101.905ZM147.299 127.825C145.369 120.086 153.951 112.484 161.284 113.088C164.999 113.395 168.31 115.534 170.343 118.62C171.764 120.777 173.109 125.077 170.868 127.143C170.552 127.435 170.123 127.417 169.802 127.143C168.5 126.029 167.749 124.186 166.492 122.926C165.101 121.532 163.269 120.54 161.284 120.406C159.482 120.284 157.807 121.075 156.627 122.436C155.198 124.084 155.252 125.84 154.713 127.825C153.734 131.433 148.225 131.539 147.299 127.825ZM222.596 115.631C218.768 114.952 214.847 115.904 211.679 118.144L211.439 118.316C208.388 120.548 204.973 124.467 206.724 128.314C207.427 129.858 209.532 130.101 210.868 129.4C213.091 128.234 213.494 125.366 215.478 123.778C217.105 122.477 219.296 121.687 221.391 121.878C226.314 122.325 229.342 127.18 230.871 131.364C231.066 131.899 231.852 132.107 232.159 131.533C235.765 124.794 229.383 116.836 222.596 115.631ZM175.101 151.471C170.888 145.569 176.856 140.017 180.773 137.637C181.799 136.9 180.984 134.461 178.792 134.838C158.877 138.259 169.195 172.564 194.622 153.739C197.649 151.297 193.983 145.918 190.721 148.009C190.555 148.136 190.382 148.271 190.201 148.41C186.535 151.245 179.828 156.43 175.101 151.471ZM203.939 164.569C201.037 159.796 194.853 171.487 194.195 173.498C193.613 175.279 193.229 177.103 193.034 178.948C190.785 179.452 188.449 179.454 186.144 179.012C182.718 178.354 180.624 176.513 177.647 174.932C175.591 173.839 172.999 175.12 171.929 176.932C170.672 179.066 171.473 181.279 173.127 182.869C176.265 185.885 182.438 186.578 186.533 185.777C188.88 185.319 191.03 184.438 192.929 183.159C192.942 183.399 192.95 183.637 192.969 183.875L193.005 184.289C193.32 187.633 193.902 172.755 196.5 174.932C200.76 178.501 202.912 177.767 198.773 174.202L200.311 173.498C197.738 171.418 198.953 179.389 199.091 176.317C199.182 174.311 199.547 172.28 200.181 170.37L200.311 169.99C200.501 169.45 202.579 164.332 203.33 164.984L203.366 165.021C203.676 165.39 204.176 164.96 203.939 164.569Z" fill="black"/>
<path fill-rule="evenodd" clip-rule="evenodd" d="M145.611 176.543C144.539 175.263 141.234 173.115 140.433 172.45C138.852 171.138 135.848 171.836 136.006 174.284L137.009 189.843C137.112 191.449 138.428 201.764 138.778 204.455C140.146 214.97 143.272 225.168 149.821 233.57C153.478 238.259 157.944 241.802 162.907 244.379C166.408 246.931 170.267 248.98 174.349 250.448C182.653 253.435 191.693 253.342 200.293 251.833C208.104 250.463 215.884 247.86 223.15 244.566C231.517 242.035 239.67 238.804 247.45 235.168C255.619 231.351 264.416 227.082 270.889 220.656C277.108 214.489 280.365 206.123 282.429 197.767C282.745 196.491 283.041 195.205 283.316 193.913C283.586 193.229 283.809 192.492 283.985 191.667C284.55 189.048 285.064 186.419 285.526 183.784C286.444 178.571 287.18 173.322 287.735 168.058C288.295 162.731 288.648 157.384 288.804 152.031C288.829 151.119 288.884 150.162 288.941 149.181C289.154 145.458 289.388 141.382 288.14 138.074C287.211 135.615 285.137 134.054 282.891 134.002C281.651 133.966 280.354 134.396 279.172 135.397C276.324 137.804 264.535 165.236 260.064 171.331C255.484 177.57 250.308 183.426 244.577 188.612C244.478 188.67 244.38 188.732 244.286 188.794C236.511 186.833 229.52 182.995 223.835 176.989C218.825 171.694 214.738 165.553 208.809 161.18C205.905 159.038 202.544 157.518 198.955 157.026C196.281 156.661 193.623 156.91 190.964 157.158C188.744 157.366 186.522 157.574 184.287 157.425C183.454 157.371 182.631 157.297 181.815 157.223C178.109 156.889 174.558 156.569 170.957 158.193C167.228 159.868 164.37 162.892 161.58 165.781C157.653 169.854 153.253 173.102 148.311 175.401C147.603 175.385 146.909 175.64 146.437 176.218C146.163 176.329 145.888 176.437 145.611 176.543ZM165.268 198.819C163.482 199.483 161.704 200.173 159.894 200.765C158.742 201.138 157.56 201.496 156.367 201.75C153.758 198.939 151.849 195.563 150.34 191.947C152.679 191.823 155.081 190.978 157.083 190.117C160.952 188.446 164.453 185.967 168.431 184.551C176.813 181.569 185.869 182.881 194.214 185.283C203.177 187.855 211.652 191.87 220.645 194.333C223.574 195.138 226.812 195.918 230.118 196.388C229.575 197.028 229.069 197.695 228.581 198.382C224.012 200.941 219.306 203.267 214.302 205.153C213.607 205.412 212.907 205.671 212.207 205.915C211.064 205.597 209.935 205.217 208.815 204.799C204.097 202.566 199.713 199.159 195.012 197.263C185.434 193.399 174.402 194.231 165.268 198.819Z" fill="black"/>
</svg>
