<?xml version="1.0" encoding="utf-8"?>
<!-- Generator: Adobe Illustrator 26.1.0, SVG Export Plug-In . SVG Version: 6.00 Build 0)  -->
<svg version="1.1" id="calque_mail" class="calque_anim" xmlns="http://www.w3.org/2000/svg" xmlns:xlink="http://www.w3.org/1999/xlink" x="0px" y="0px"
	 viewBox="0 0 300 300" style="enable-background:new 0 0 300 300;" xml:space="preserve">
<g class="animRound">
	<polygon class="st2" points="236.9,75.93 232.24,77.83 234.33,80.23 	"/>
	<polygon class="st2" points="110,48.54 106.77,44.71 107.05,49.74 	"/>
	<polygon class="st2" points="35.53,163.69 40.44,164.8 40.1,161.64 	"/>
	<polygon class="st2" points="125.54,263.94 128.14,259.63 125.03,258.96 	"/>
	<polygon class="st2" points="249.04,210.13 245.78,206.3 244.16,209.04 	"/>
	<path class="st2" d="M150,10.98c-77.08,0-139.56,62.49-139.56,139.56c0,77.08,62.49,139.56,139.56,139.56
		s139.56-62.49,139.56-139.56C289.57,73.47,227.08,10.98,150,10.98z M272.69,139.64l-4.47,0.66l-1.18-7.99l-2.94,0.43l0.95,6.49
		l-4.47,0.66l-0.96-6.49l-3.07,0.45l1.18,7.99l-4.47,0.66l-1.83-12.47l19.4-2.86L272.69,139.64z M266.05,110.01l-10.42,7.84l13,0.26
		l1.41,4.44l-18.39,7.07l-1.37-4.31l7.5-2.9l-8.48-0.16l-1.37-4.31l7.08-5.29l-8.12,2.03l-1.38-4.33l19.12-4.77L266.05,110.01z
		 M257.17,90.8l-13.23,7.37l3.49,6.26l-3.95,2.2l-5.69-10.21l17.18-9.57L257.17,90.8z M250.11,79.73l2.57,3.72L236.5,94.62
		l-2.57-3.72L250.11,79.73z M224.2,53.09l-4.4,12.27l11.01-6.92l3.62,2.93L223.6,76.47l17.95-7.35l2.81,3.23l-10.64,17.68
		l-3.13-3.59l1.29-2.15l-4.06-4.66l-2.32,0.96l-3.15-3.61l0.07-0.03l-2.98-2.42l4.68-6.54l-7.17,4.52l-3.51-2.85l3.01-8.31
		l-5.67,6.15l-3.53-2.86l13.36-14.49L224.2,53.09z M205.58,41.43l10.95,6.23l-2.24,3.93l-7.01-4.01l-1.47,2.58l5.69,3.25l-2.24,3.93
		l-5.69-3.25l-1.54,2.69l7.01,4.01l-2.24,3.93l-10.94-6.26L205.58,41.43z M166.16,29.26l12.4,2.25l-0.82,4.45l-7.95-1.46l-0.54,2.92
		l6.45,1.18l-0.82,4.45l-6.45-1.18l-0.56,3.05l7.95,1.46l-0.82,4.45l-12.4-2.27L166.16,29.26z M143.72,28.16l4.65,0.1l4.05,12.39
		l4.45-12.22l4.65,0.1l0.75,19.68l-4.52-0.09l-0.32-8.04l-2.89,7.97l-4.52-0.09l-2.72-8.41l-0.71,8.34l-4.55-0.09L143.72,28.16z
		 M127.43,30.38l2.65,14.91l7.06-1.26l0.79,4.45l-11.51,2.05l-3.44-19.36L127.43,30.38z M119.03,32.23l5.28,18.94l-4.36,1.21
		l-5.28-18.94L119.03,32.23z M81.01,49.36l10.2,8.13l-2.99-12.66l3.94-2.48l10.8,15.15l-1.13-19.39l3.97-1.61l13.27,15.8l-4.41,1.8
		l-1.62-1.91l-5.73,2.33l0.15,2.51l-4.44,1.81l0-0.07l-3.27,2.05l-4.68-6.54l1.96,8.25l-3.83,2.41l-6.89-5.53l3.99,7.35l-3.85,2.42
		l-9.4-17.32L81.01,49.36z M73.43,54.85l2.99,3.39l-6.06,5.34l1.96,2.23l4.92-4.33l2.99,3.39L75.3,69.2l2.05,2.33l6.06-5.34
		l2.99,3.39l-9.46,8.33L63.99,63.2L73.43,54.85z M42.58,90.97l4.05,2.01l-3.6,7.23l2.66,1.32l2.92-5.87l4.05,2.01l-2.92,5.87
		l2.78,1.38l3.6-7.23l4.05,2.02L54.54,111l-17.56-8.74L42.58,90.97z M31.12,119.02l13.03-0.48l-10.52-7.65l1.38-4.45l19.13,4.71
		l-1.34,4.32L45,113.57l6.86,4.98l-1.34,4.32l-8.83,0.29l7.82,2.98l-1.34,4.35l-18.42-7.01L31.12,119.02z M27.42,139.87l15.07,1.52
		l0.72-7.13l4.5,0.45l-1.17,11.63l-19.57-1.97L27.42,139.87z M26.92,148.26l19.66,0.32l-0.07,4.52l-19.66-0.32L26.92,148.26z
		 M32.88,189.71l10.63-7.56l-12.99-0.62l-1.29-4.47l17.51-6.19l-18.91-4.26l-0.46-4.26l18.85-8.4l0.51,4.74l-2.29,1.03l0.66,6.14
		l2.45,0.54l0.51,4.76l-0.08-0.02l1.06,3.68l-7.58,2.69l8.47,0.39l1.26,4.34l-7.22,5.09l8.17-1.8l1.26,4.37l-19.24,4.25
		L32.88,189.71z M41.49,209.87l-5.43-11.37l4.08-1.94l3.47,7.3l2.68-1.28l-2.82-5.92l4.08-1.94l2.81,5.92l2.8-1.33l-3.47-7.3
		l4.08-1.94l5.41,11.38L41.49,209.87z M58.73,234.26l3.19-3.21l5.73,5.7l2.09-2.11l-4.65-4.62l3.19-3.21l4.65,4.62l2.19-2.2
		l-5.73-5.7l3.19-3.21l8.94,8.88l-13.83,13.91L58.73,234.26z M85.62,256.76l-3.79-2.71l3.66-12.52l-10.58,7.56l-3.79-2.71
		l10.51-16.66l3.68,2.63l-4.28,6.81l6.89-4.94l3.68,2.63l-2.51,8.47l5.29-6.48l3.7,2.65L85.62,256.76z M77.24,151.43
		c0-40.18,32.57-72.76,72.76-72.76s72.76,32.57,72.76,72.76c0,40.18-32.57,72.76-72.76,72.76S77.24,191.61,77.24,151.43z
		 M100.33,264.11l6.22-13.81l-6.54-2.94l1.86-4.12l10.66,4.8l-8.07,17.93L100.33,264.11z M112.66,268.8l-4.28-1.45l6.3-18.63
		l4.28,1.45L112.66,268.8z M154,274.79l-4.65-0.18l-3.83-12.47l-4.67,12.13l-4.65-0.18l-0.36-18.49l-9.93,16.56l-4.18-0.9
		l-2.07-20.53l4.66,1l0.26,2.49l6.04,1.3l1.29-2.16l4.68,1.01l-0.03,0.05l3.79,0.15l0.17,8.04l3.04-7.91l4.52,0.18l2.56,8.45
		l0.86-8.32l4.55,0.18L154,274.79z M158.69,274.38l-0.54-4.49l8.02-0.97l-0.36-2.95l-6.51,0.79l-0.54-4.49l6.51-0.79l-0.37-3.08
		l-8.02,0.97l-0.55-4.49l12.51-1.52l2.37,19.47L158.69,274.38z M199.91,264.16l-2.04-4.03l7.21-3.65l-1.34-2.65l-5.85,2.96
		l-2.04-4.03l5.85-2.96l-1.4-2.77l-7.21,3.65l-2.04-4.03l11.24-5.69l8.86,17.5L199.91,264.16z M225.88,248.48l-10.73-7.41
		l3.86,12.42l-3.76,2.74l-12.52-15.21l3.65-2.66l5.12,6.2l-2.53-8.09l3.65-2.66l7.25,5.04l-4.49-7.06l3.68-2.68l10.57,16.63
		L225.88,248.48z M241.31,234.02l-11.15-10.24l-4.85,5.28l-3.33-3.06l7.91-8.61l14.48,13.3L241.31,234.02z M246.84,227.5
		l-15.68-11.87l2.73-3.6l15.68,11.87L246.84,227.5z M266.73,190.89l-13.04-0.31l10.04,8.27l-1.64,4.36l-17.69-5.51l12.57,14.69
		l-2.18,3.68l-20.13-4.55l2.43-4.1l2.44,0.55l3.15-5.32l-1.64-1.9l2.44-4.12l0.05,0.06l1.34-3.57l7.68,2.38l-6.55-5.38l1.59-4.23
		l8.83,0.24l-7.62-3.44l1.6-4.26l17.96,8.11L266.73,190.89z M269.46,181.86l-4.43-0.89l1.58-7.92l-2.91-0.58l-1.28,6.43l-4.43-0.89
		l1.28-6.43l-3.04-0.61l-1.58,7.92l-4.43-0.89l2.47-12.36l19.23,3.84L269.46,181.86z"/>
</g>
<g>
	<polygon class="st2" points="150,147.87 190.1,122.81 109.9,122.81 	"/>
	<polygon class="st2" points="109.9,132.83 109.9,182.96 190.1,182.96 190.1,132.83 150,157.9 	"/>
	<path class="st2" d="M150,61.24c-49.32,0-89.31,39.98-89.31,89.31s39.98,89.31,89.31,89.31s89.31-39.98,89.31-89.31
		S199.32,61.24,150,61.24z M200.13,182.96c0,2.76-0.98,5.12-2.95,7.08c-1.96,1.96-4.32,2.95-7.08,2.94H109.9
		c-2.76,0-5.12-0.98-7.08-2.95c-1.97-1.97-2.95-4.32-2.94-7.08v-60.16c0-2.76,0.98-5.12,2.95-7.08c1.97-1.97,4.32-2.95,7.08-2.94
		h80.21c2.76,0,5.12,0.98,7.08,2.95c1.96,1.97,2.95,4.32,2.94,7.08V182.96z"/>
</g>
</svg>
