<svg width="37" height="33" viewBox="0 0 37 33" fill="none" xmlns="http://www.w3.org/2000/svg">
<g clip-path="url(#clip0_827_152)">
<path d="M17.9604 10.3383C18.1403 10.3189 18.3201 10.3125 18.5 10.3125C21.9045 10.3125 24.6667 13.026 24.6667 16.5C24.6667 19.916 21.9045 22.6875 18.5 22.6875C15.0377 22.6875 12.3333 19.916 12.3333 16.5C12.3333 16.3195 12.3398 16.1391 12.359 15.9586C12.9564 16.2486 13.6502 16.5 14.3889 16.5C16.6564 16.5 18.5 14.6502 18.5 12.375C18.5 11.6338 18.2495 10.9377 17.9604 10.3383ZM30.8719 7.25742C33.8781 10.0547 35.8887 13.3482 36.8394 15.7072C37.0514 16.2164 37.0514 16.7836 36.8394 17.2928C35.8887 19.5938 33.8781 22.8873 30.8719 25.7426C27.8464 28.5656 23.6903 30.9375 18.5 30.9375C13.3097 30.9375 9.15365 28.5656 6.12942 25.7426C3.12317 22.8873 1.11386 19.5938 0.158091 17.2928C0.0537311 17.0416 0 16.7721 0 16.5C0 16.2279 0.0537311 15.9584 0.158091 15.7072C1.11386 13.3482 3.12317 10.0547 6.12942 7.25742C9.15365 4.43695 13.3097 2.0625 18.5 2.0625C23.6903 2.0625 27.8464 4.43695 30.8719 7.25742ZM18.5 7.21875C13.3932 7.21875 9.25001 11.376 9.25001 16.5C9.25001 21.624 13.3932 25.7812 18.5 25.7812C23.6068 25.7812 27.75 21.624 27.75 16.5C27.75 11.376 23.6068 7.21875 18.5 7.21875Z" fill="#CC70D8"/>
</g>
<defs>
<clipPath id="clip0_827_152">
<rect width="37" height="33" fill="white"/>
</clipPath>
</defs>
</svg>
