<?xml version="1.0" encoding="utf-8"?>
<!-- Generator: Adobe Illustrator 26.1.0, SVG Export Plug-In . SVG Version: 6.00 Build 0)  -->
<svg version="1.1" id="calque_github" class="calque_anim" xmlns="http://www.w3.org/2000/svg" xmlns:xlink="http://www.w3.org/1999/xlink" x="0px" y="0px"
	 viewBox="0 0 300 300" style="enable-background:new 0 0 300 300;" xml:space="preserve">
<style type="text/css">
	.st0{fill-rule:evenodd;clip-rule:evenodd;}
</style>
<g>
	<g class="animRound">
		<path class="st0" d="M188.59,263.25c-0.55,0.2-0.95,0.48-1.2,0.84c-0.25,0.35-0.34,0.66-0.26,0.9c0.07,0.23,0.32,0.41,0.73,0.56
			c0.42,0.15,0.91,0.13,1.49-0.06l0.86-0.28l-0.74-2.26L188.59,263.25z"/>
		<path class="st0" d="M55.76,222.8c-0.42-0.12-0.73-0.1-0.94,0.06c-0.19,0.15-0.28,0.44-0.29,0.88c0,0.44,0.18,0.91,0.55,1.39
			l0.55,0.72l1.89-1.45l-0.57-0.75C56.57,223.21,56.18,222.92,55.76,222.8z"/>
		<path class="st0" d="M177.57,46.42c0.5-0.03,0.96-0.13,1.37-0.3c0.41-0.16,0.76-0.39,1.05-0.66c0.29-0.28,0.47-0.6,0.56-0.97
			c0.09-0.36,0.08-0.74-0.04-1.13c-0.12-0.39-0.32-0.76-0.61-1.09c-0.29-0.34-0.65-0.64-1.07-0.9c-0.43-0.26-0.89-0.46-1.39-0.58
			l-0.61-0.15l-0.07-0.02l-0.88-0.22l-1.36,5.5l1.56,0.39C176.57,46.41,177.07,46.45,177.57,46.42z"/>
		<path class="st0" d="M64.65,215.05c-0.41-0.29-0.83-0.5-1.25-0.62c-0.43-0.13-0.84-0.18-1.23-0.14c-0.4,0.04-0.75,0.17-1.04,0.4
			c-0.3,0.23-0.52,0.53-0.67,0.91c-0.15,0.38-0.22,0.79-0.2,1.24c0.01,0.44,0.11,0.9,0.28,1.37c0.17,0.47,0.41,0.91,0.72,1.32
			l0.38,0.5l0.04,0.06l0.55,0.72l4.5-3.44l-0.98-1.28C65.42,215.69,65.06,215.34,64.65,215.05z"/>
		<path class="st0" d="M185.9,251.95l-1.53,0.5c-0.49,0.16-0.93,0.38-1.34,0.68c-0.41,0.29-0.74,0.62-1.01,0.98
			c-0.26,0.36-0.44,0.73-0.54,1.12c-0.1,0.39-0.08,0.76,0.03,1.12c0.12,0.36,0.33,0.67,0.64,0.94c0.31,0.27,0.67,0.47,1.1,0.6
			c0.42,0.13,0.89,0.2,1.39,0.19c0.5,0,1-0.08,1.48-0.24l0.6-0.19l0.07-0.02l0.86-0.28L185.9,251.95z"/>
		<path class="st0" d="M179.66,34.81c0.4-0.17,0.63-0.38,0.7-0.63c0.06-0.23-0.05-0.52-0.33-0.87c-0.27-0.35-0.71-0.59-1.29-0.74
			l-0.88-0.22l-0.57,2.31l0.92,0.23C178.78,35.01,179.26,34.98,179.66,34.81z"/>
		<path class="st0" d="M263.12,139.53l-0.01-0.07l-0.08-0.91l-5.64,0.49l0.14,1.6c0.04,0.51,0.16,1,0.36,1.46
			c0.19,0.46,0.44,0.86,0.72,1.2c0.29,0.34,0.61,0.6,0.97,0.78c0.36,0.18,0.72,0.25,1.1,0.22c0.37-0.03,0.73-0.17,1.06-0.41
			c0.33-0.24,0.61-0.55,0.84-0.93c0.22-0.38,0.39-0.82,0.5-1.31c0.11-0.49,0.14-0.99,0.1-1.5L263.12,139.53z"/>
		<path class="st0" d="M268.92,138.04l0.08,0.94c0.07,0.58,0.26,1.03,0.54,1.36c0.29,0.33,0.56,0.48,0.82,0.46
			c0.24-0.02,0.47-0.22,0.71-0.59c0.24-0.37,0.34-0.86,0.28-1.46l-0.08-0.9L268.92,138.04z"/>
		<path class="st0" d="M150.33,10.3c-76.91,0-139.26,62.35-139.26,139.26s62.35,139.26,139.26,139.26s139.26-62.35,139.26-139.26
			S227.24,10.3,150.33,10.3z M271.56,111.05l-15.37,4.51c-0.98,0.29-1.74,0.91-2.26,1.86c-0.48,0.94-0.57,1.91-0.27,2.92
			c0.14,0.49,0.38,0.93,0.72,1.32c0.33,0.39,0.72,0.7,1.15,0.94c0.43,0.24,0.9,0.38,1.4,0.43c0.5,0.05,1.01,0,1.52-0.15l15.27-4.48
			l1.66,5.67l-15.23,4.47c-1.27,0.4-2.54,0.52-3.83,0.38c-1.28-0.15-2.47-0.51-3.57-1.1c-1.1-0.59-2.06-1.38-2.89-2.36
			c-0.84-0.98-1.45-2.11-1.85-3.38l-0.03-0.1c-0.37-1.25-0.49-2.51-0.35-3.76c0.13-1.25,0.49-2.44,1.09-3.56
			c0.63-1.16,1.44-2.14,2.41-2.95c0.98-0.81,2.1-1.41,3.37-1.81l15.4-4.52L271.56,111.05z M260.79,87.02l-8.86,4.78l3.52,6.52
			l8.86-4.78l2.8,5.2l-22.59,12.18l-2.81-5.2l8.52-4.6l-3.52-6.52l-8.52,4.6l-2.81-5.2l22.59-12.18L260.79,87.02z M244.34,149.56
			c0,51.92-42.09,94.01-94.01,94.01s-94.01-42.09-94.01-94.01s42.09-94.01,94.01-94.01S244.34,97.64,244.34,149.56z M254.85,77.19
			l-4.61,3.7l-3.08-3.85l-15.49,12.42l-3.7-4.61l15.49-12.42l-3.06-3.82l4.61-3.7L254.85,77.19z M241.38,61.49l-17.91,18.43
			l-4.24-4.12l17.91-18.43L241.38,61.49z M204.92,54.9c0.41-1.64,1.09-3.13,2.05-4.48c0.96-1.35,2.15-2.49,3.57-3.42
			c1.42-0.93,3.01-1.55,4.77-1.84c1.76-0.3,3.46-0.24,5.12,0.16c1.66,0.41,3.16,1.09,4.51,2.05c1.35,0.96,2.49,2.15,3.41,3.58
			c0.93,1.43,1.54,3.03,1.84,4.78l-5.85,0.99c-0.16-0.94-0.49-1.8-1-2.58c-0.51-0.78-1.12-1.42-1.84-1.93
			c-0.72-0.51-1.53-0.88-2.43-1.11c-0.9-0.22-1.82-0.26-2.76-0.1c-0.94,0.16-1.81,0.49-2.59,0.99c-0.78,0.5-1.43,1.11-1.95,1.83
			c-0.51,0.72-0.88,1.53-1.09,2.44c-0.21,0.91-0.24,1.83-0.08,2.77c0.14,0.85,0.42,1.62,0.85,2.34c0.42,0.72,0.94,1.33,1.56,1.84
			c0.62,0.51,1.32,0.91,2.08,1.2c0.77,0.29,1.57,0.43,2.4,0.42l0.75-1.05l-4.19-2.98l3.42-4.81l9.03,6.42l-8.33,11.71l-4.84-3.44
			l0.37-0.51c-0.67-0.19-1.31-0.44-1.93-0.75c-0.62-0.31-1.21-0.67-1.76-1.06c-1.35-0.96-2.49-2.16-3.41-3.59
			c-0.93-1.43-1.54-3.02-1.84-4.78C204.45,58.24,204.51,56.54,204.92,54.9z M173.54,25.2l6.61,1.67c1.04,0.26,1.98,0.68,2.82,1.27
			c0.84,0.59,1.53,1.28,2.08,2.08c0.55,0.8,0.92,1.65,1.11,2.58c0.19,0.92,0.17,1.86-0.07,2.81c-0.28,1.13-0.82,2.1-1.62,2.91
			c0.87,1.06,1.47,2.22,1.8,3.49c0.33,1.27,0.34,2.56,0.01,3.87c-0.29,1.18-0.81,2.22-1.56,3.13c-0.75,0.91-1.66,1.64-2.72,2.19
			c-1.06,0.55-2.22,0.91-3.49,1.07c-1.26,0.16-2.55,0.07-3.86-0.25l-7.3-1.81L173.54,25.2z M146.65,23.17l5.9,0.26l-0.71,16
			c-0.05,1.03,0.3,1.94,1.03,2.74c0.74,0.76,1.63,1.16,2.68,1.2c0.51,0.02,1.01-0.06,1.48-0.25c0.48-0.19,0.89-0.45,1.26-0.78
			c0.37-0.33,0.65-0.73,0.86-1.19c0.21-0.46,0.32-0.95,0.35-1.49l0.71-15.89l5.9,0.26l-0.7,15.86c-0.04,1.33-0.33,2.57-0.88,3.74
			c-0.55,1.17-1.29,2.17-2.2,3.02c-0.91,0.85-1.97,1.51-3.17,1.98c-1.2,0.47-2.46,0.69-3.79,0.65l-0.1,0
			c-1.3-0.06-2.53-0.35-3.67-0.88c-1.14-0.53-2.15-1.25-3.02-2.18c-0.89-0.97-1.56-2.05-2.01-3.24c-0.45-1.19-0.66-2.44-0.62-3.77
			L146.65,23.17z M126.4,25.78l1.62,9.94l7.32-1.19l-1.62-9.94l5.83-0.95l4.14,25.33l-5.83,0.95l-1.56-9.56l-7.31,1.19l1.56,9.56
			l-5.83,0.95l-4.13-25.33L126.4,25.78z M115.18,28.18l1.99,5.56l-4.64,1.66l6.7,18.69l-5.56,1.99l-6.7-18.69l-4.61,1.65l-1.99-5.56
			L115.18,28.18z M95.96,35.8l11.61,22.92l-5.27,2.67L90.69,38.46L95.96,35.8z M71.98,55.23c0.29-1.76,0.89-3.35,1.81-4.79
			c0.92-1.44,2.05-2.64,3.39-3.6c1.34-0.97,2.84-1.66,4.5-2.07c1.65-0.41,3.36-0.48,5.12-0.19l-0.96,5.86
			c-0.94-0.15-1.86-0.12-2.76,0.11c-0.9,0.23-1.71,0.6-2.42,1.12c-0.72,0.52-1.33,1.17-1.83,1.94c-0.5,0.78-0.83,1.64-0.98,2.58
			c-0.16,0.94-0.12,1.87,0.1,2.77c0.22,0.9,0.59,1.72,1.11,2.43c0.52,0.72,1.17,1.33,1.96,1.82c0.79,0.5,1.65,0.82,2.6,0.97
			c0.84,0.14,1.67,0.12,2.49-0.04c0.81-0.17,1.56-0.46,2.25-0.88c0.69-0.42,1.29-0.95,1.81-1.58c0.52-0.63,0.91-1.35,1.18-2.14
			l-0.76-1.05l-4.17,3l-3.45-4.8l9-6.47l8.39,11.67l-4.83,3.47l-0.37-0.51c-0.39,0.57-0.84,1.1-1.34,1.58
			c-0.5,0.49-1.02,0.93-1.57,1.32c-1.34,0.97-2.84,1.66-4.5,2.07c-1.65,0.41-3.36,0.48-5.12,0.19c-1.76-0.29-3.35-0.89-4.76-1.81
			c-1.42-0.92-2.61-2.05-3.58-3.39c-0.97-1.34-1.66-2.84-2.09-4.49C71.76,58.69,71.69,56.99,71.98,55.23z M43.75,81.8
			c0.59-0.9,1.3-1.64,2.14-2.23c0.84-0.59,1.72-1.02,2.65-1.27c0.93-0.25,1.87-0.31,2.8-0.19c0.94,0.13,1.81,0.46,2.63,1
			c0.97,0.64,1.71,1.47,2.21,2.5c1.28-0.47,2.58-0.65,3.89-0.54c1.31,0.11,2.53,0.53,3.66,1.27c1.01,0.67,1.82,1.5,2.43,2.52
			c0.6,1.01,0.99,2.11,1.16,3.29s0.12,2.4-0.16,3.64c-0.27,1.24-0.78,2.43-1.52,3.56l-4.13,6.28L39.98,87.48L43.75,81.8z
			 M31.35,106.62l14.85,5.99c0.95,0.38,1.93,0.36,2.93-0.06c0.96-0.44,1.63-1.15,2.03-2.12c0.19-0.48,0.28-0.97,0.26-1.48
			c-0.02-0.51-0.13-0.99-0.32-1.45c-0.19-0.46-0.47-0.86-0.83-1.2c-0.36-0.35-0.79-0.62-1.29-0.82l-14.75-5.95l2.21-5.48l14.72,5.94
			c1.24,0.48,2.32,1.17,3.23,2.08c0.91,0.91,1.62,1.93,2.11,3.08c0.49,1.14,0.77,2.36,0.81,3.64c0.05,1.29-0.17,2.55-0.64,3.79
			l-0.04,0.1c-0.49,1.21-1.17,2.27-2.05,3.17c-0.88,0.9-1.9,1.61-3.06,2.12c-1.21,0.52-2.45,0.79-3.72,0.82
			c-1.27,0.03-2.52-0.19-3.76-0.67l-14.88-6L31.35,106.62z M24.91,132.17l9.92,1.74l1.28-7.3l-9.92-1.74l1.02-5.82l25.28,4.43
			l-1.02,5.82l-9.54-1.67l-1.28,7.3l9.54,1.67l-1.02,5.82l-25.28-4.43L24.91,132.17z M23.42,143.86l5.91-0.1l0.08,4.93l19.86-0.32
			l0.1,5.91L29.5,154.6l0.08,4.89l-5.91,0.1L23.42,143.86z M24.3,164.18l25.48-3.32l0.76,5.86l-25.48,3.32L24.3,164.18z
			 M39.52,194.73c-1.69-0.15-3.32-0.65-4.88-1.5c-1.56-0.85-2.87-1.95-3.91-3.3c-1.05-1.34-1.81-2.81-2.27-4.4
			c-0.46-1.59-0.62-3.23-0.46-4.93c0.16-1.7,0.67-3.33,1.52-4.89l5.2,2.85c-0.46,0.84-0.73,1.72-0.81,2.64
			c-0.08,0.92,0,1.81,0.25,2.66c0.25,0.85,0.66,1.64,1.22,2.37c0.57,0.73,1.27,1.33,2.11,1.79c0.84,0.46,1.72,0.74,2.65,0.83
			c0.93,0.09,1.81,0.02,2.66-0.23c0.85-0.25,1.64-0.66,2.37-1.24c0.73-0.58,1.32-1.28,1.78-2.12c0.41-0.75,0.67-1.54,0.79-2.36
			c0.11-0.82,0.08-1.63-0.09-2.42c-0.17-0.79-0.47-1.53-0.89-2.23c-0.42-0.7-0.97-1.31-1.63-1.82l-1.24,0.36l1.44,4.93l-5.67,1.66
			l-3.11-10.64l13.79-4.03l1.67,5.7l-0.6,0.18c0.41,0.56,0.76,1.16,1.05,1.79c0.29,0.63,0.53,1.27,0.73,1.92
			c0.46,1.59,0.62,3.23,0.46,4.93c-0.16,1.7-0.67,3.33-1.52,4.89c-0.85,1.56-1.95,2.86-3.29,3.89c-1.34,1.03-2.8,1.78-4.39,2.25
			C42.85,194.72,41.21,194.88,39.52,194.73z M50.41,228.7c-0.65-0.85-1.12-1.77-1.4-2.75c-0.28-0.99-0.39-1.96-0.32-2.92
			c0.07-0.96,0.32-1.87,0.75-2.71c0.43-0.84,1.03-1.56,1.81-2.15c0.93-0.71,1.95-1.13,3.09-1.26c-0.02-1.37,0.24-2.65,0.77-3.85
			c0.53-1.2,1.34-2.21,2.41-3.03c0.96-0.74,2.02-1.22,3.17-1.46c1.16-0.24,2.32-0.24,3.49-0.01c1.17,0.23,2.3,0.68,3.39,1.35
			c1.08,0.67,2.04,1.54,2.86,2.61l4.57,5.97l-20.46,15.66L50.41,228.7z M69.76,248.61l10.57-12.03c0.68-0.77,0.98-1.7,0.91-2.78
			c-0.1-1.05-0.55-1.92-1.33-2.61c-0.38-0.34-0.82-0.58-1.31-0.73c-0.49-0.15-0.98-0.21-1.47-0.18c-0.49,0.03-0.96,0.16-1.41,0.39
			c-0.45,0.23-0.85,0.54-1.2,0.95L64,243.56l-4.44-3.9l10.47-11.93c0.86-1.01,1.87-1.8,3.03-2.36c1.16-0.56,2.36-0.89,3.6-0.98
			c1.24-0.09,2.48,0.06,3.71,0.44c1.23,0.38,2.35,1,3.37,1.86l0.08,0.07c0.98,0.86,1.75,1.86,2.31,2.98
			c0.56,1.13,0.89,2.32,0.99,3.59c0.09,1.32-0.07,2.58-0.46,3.78c-0.39,1.21-1.02,2.32-1.88,3.33L74.2,252.51L69.76,248.61z
			 M91.69,263.16l4.94-8.77l-6.46-3.64l-4.94,8.77l-5.15-2.9l12.59-22.36l5.15,2.9l-4.75,8.44l6.46,3.64l4.75-8.44l5.15,2.9
			l-12.59,22.36L91.69,263.16z M118.73,267.8l-1.92,5.59l-14.88-5.11l1.92-5.59l4.66,1.6l6.45-18.78l5.59,1.92l-6.45,18.78
			L118.73,267.8z M127.51,275.56l-5.78-1.21l5.25-25.16l5.78,1.21L127.51,275.56z M156.7,265.24c-0.09,1.65-0.48,3.25-1.18,4.8
			c-0.7,1.55-1.71,2.92-3.03,4.11c-1.32,1.19-2.79,2.06-4.41,2.61c-1.62,0.54-3.25,0.78-4.9,0.69s-3.25-0.49-4.8-1.2
			c-1.55-0.71-2.92-1.73-4.11-3.05l4.41-3.97c0.64,0.71,1.38,1.26,2.22,1.64c0.84,0.38,1.71,0.6,2.59,0.64
			c0.88,0.05,1.77-0.08,2.64-0.37c0.88-0.29,1.67-0.76,2.38-1.4c0.71-0.64,1.26-1.38,1.66-2.22c0.4-0.84,0.61-1.71,0.66-2.59
			c0.05-0.88-0.08-1.77-0.39-2.65c-0.3-0.88-0.78-1.67-1.42-2.39c-0.57-0.64-1.23-1.14-1.97-1.52c-0.74-0.38-1.51-0.62-2.31-0.72
			c-0.8-0.1-1.6-0.07-2.4,0.1c-0.8,0.17-1.55,0.48-2.25,0.93l-0.07,1.29l5.13,0.27l-0.31,5.9l-11.07-0.58l0.75-14.35l5.94,0.31
			l-0.03,0.63c0.66-0.2,1.34-0.33,2.03-0.4c0.69-0.07,1.38-0.09,2.05-0.05c1.65,0.09,3.25,0.49,4.8,1.2
			c1.55,0.71,2.92,1.73,4.11,3.05c1.19,1.32,2.06,2.79,2.59,4.39C156.56,261.96,156.79,263.59,156.7,265.24z M191.17,271.09
			c-1.02,0.33-2.04,0.47-3.07,0.41c-1.02-0.06-1.98-0.28-2.86-0.67c-0.88-0.39-1.65-0.92-2.3-1.6c-0.65-0.68-1.13-1.49-1.43-2.42
			c-0.36-1.11-0.42-2.22-0.17-3.33c-1.29-0.44-2.42-1.11-3.37-2.01c-0.96-0.9-1.64-2-2.06-3.28c-0.38-1.15-0.48-2.31-0.32-3.48
			c0.16-1.17,0.54-2.27,1.15-3.3c0.61-1.03,1.41-1.95,2.4-2.75c0.99-0.8,2.13-1.41,3.41-1.83l7.15-2.33l7.98,24.5L191.17,271.09z
			 M216.39,259.42l-7.87-13.95c-0.5-0.89-1.28-1.49-2.33-1.78c-1.02-0.25-1.99-0.12-2.91,0.4c-0.45,0.25-0.82,0.58-1.12,0.99
			c-0.3,0.41-0.52,0.86-0.65,1.33c-0.13,0.48-0.17,0.96-0.1,1.46c0.07,0.5,0.23,0.98,0.5,1.45l7.81,13.85l-5.15,2.9l-7.8-13.83
			c-0.67-1.15-1.08-2.36-1.23-3.64c-0.15-1.28-0.06-2.52,0.27-3.72c0.33-1.2,0.87-2.32,1.64-3.35c0.77-1.03,1.72-1.89,2.87-2.56
			l0.09-0.05c1.14-0.64,2.33-1.04,3.58-1.2c1.25-0.16,2.49-0.07,3.71,0.25c1.27,0.35,2.41,0.91,3.42,1.68
			c1.01,0.77,1.85,1.73,2.52,2.87l7.88,13.98L216.39,259.42z M237.36,243.52l-6.65-7.56l-5.57,4.9l6.65,7.56l-4.44,3.9l-16.95-19.27
			l4.44-3.9l6.4,7.27l5.57-4.9l-6.39-7.27l4.44-3.9l16.95,19.27L237.36,243.52z M245.6,235.53l-4.63-3.66l3.06-3.87l-15.58-12.32
			l3.66-4.63l15.58,12.32l3.04-3.84l4.63,3.66L245.6,235.53z M257.87,218.91l-21.97-13.33l3.06-5.05l21.97,13.33L257.87,218.91z
			 M267.95,199.7c-0.63,1.53-1.54,2.91-2.73,4.13c-1.19,1.22-2.6,2.18-4.24,2.86l-2.28-5.48c0.88-0.37,1.64-0.89,2.28-1.55
			c0.64-0.67,1.13-1.41,1.47-2.23c0.34-0.82,0.51-1.69,0.53-2.62c0.02-0.93-0.16-1.83-0.53-2.71c-0.37-0.88-0.88-1.65-1.55-2.3
			c-0.66-0.65-1.41-1.15-2.22-1.48c-0.82-0.34-1.69-0.51-2.62-0.51c-0.93-0.01-1.84,0.17-2.72,0.54c-0.79,0.33-1.49,0.78-2.09,1.35
			c-0.6,0.57-1.08,1.22-1.44,1.94c-0.36,0.72-0.59,1.49-0.7,2.3c-0.11,0.81-0.06,1.62,0.13,2.44l1.2,0.49l1.96-4.75l5.46,2.25
			l-4.22,10.25l-13.29-5.48l2.26-5.5l0.58,0.24c0.03-0.69,0.13-1.38,0.3-2.05c0.16-0.68,0.38-1.33,0.63-1.95
			c0.63-1.53,1.54-2.91,2.72-4.13c1.19-1.23,2.6-2.18,4.24-2.87c1.64-0.68,3.31-1.01,5-0.98c1.69,0.03,3.3,0.36,4.83,0.99
			c1.53,0.63,2.91,1.53,4.14,2.71c1.23,1.17,2.19,2.58,2.87,4.23c0.68,1.64,1.01,3.32,0.99,5.02
			C268.91,196.55,268.58,198.17,267.95,199.7z M275.63,143.95c-0.58,0.77-1.27,1.4-2.08,1.88c-0.81,0.48-1.71,0.76-2.68,0.85
			c-1.16,0.1-2.25-0.1-3.28-0.59c-0.72,1.16-1.62,2.11-2.72,2.83c-1.1,0.73-2.32,1.15-3.66,1.27c-1.21,0.11-2.36-0.05-3.46-0.47
			c-1.1-0.42-2.09-1.04-2.95-1.87c-0.87-0.83-1.58-1.81-2.14-2.95c-0.56-1.15-0.89-2.39-1.01-3.74l-0.65-7.49l25.67-2.24l0.56,6.8
			c0.09,1.07-0.01,2.09-0.29,3.08C276.64,142.29,276.2,143.17,275.63,143.95z"/>
		<path class="st0" d="M60.5,87.28c-0.31-0.21-0.68-0.32-1.08-0.34c-0.41-0.02-0.82,0.05-1.23,0.21c-0.41,0.16-0.82,0.4-1.21,0.71
			c-0.39,0.32-0.73,0.69-1.01,1.12l-0.35,0.53l-0.04,0.06l-0.5,0.76l4.73,3.11l0.88-1.34c0.28-0.43,0.49-0.88,0.62-1.37
			c0.14-0.48,0.19-0.95,0.18-1.39c-0.02-0.44-0.11-0.85-0.28-1.21C61.06,87.77,60.82,87.49,60.5,87.28z"/>
		<path class="st0" d="M49.79,84.05c-0.42,0.14-0.8,0.47-1.13,0.97l-0.5,0.76l1.99,1.31l0.52-0.79c0.3-0.5,0.44-0.97,0.41-1.4
			c-0.03-0.44-0.15-0.72-0.36-0.87C50.52,83.9,50.21,83.91,49.79,84.05z"/>
	</g>
	<path class="st0" d="M150.33,53.22c-54.38,0-98.46,44.08-98.46,98.46s44.08,98.46,98.46,98.46c54.38,0,98.46-44.08,98.46-98.46
		S204.71,53.22,150.33,53.22z M185.06,167.37c-4.05,3-8.54,5.35-13.31,6.97c1.1,2.52,1.71,5.3,1.71,8.23v15.42
		c0,1.36-0.54,2.67-1.51,3.63c-0.96,0.96-2.27,1.51-3.63,1.51h-30.83c-1.36,0-2.67-0.54-3.63-1.51c-0.96-0.96-1.51-2.27-1.51-3.63
		v-5.09c-4.91,0.6-9.02,0.07-12.52-1.42c-3.66-1.55-6.21-3.96-8.12-6.26c-1.82-2.18-3.8-7.09-6.67-8.05
		c-0.64-0.21-1.23-0.55-1.74-0.99c-0.51-0.44-0.93-0.98-1.23-1.58c-0.61-1.22-0.71-2.63-0.28-3.92c0.43-1.29,1.36-2.36,2.58-2.97
		c1.22-0.61,2.63-0.71,3.92-0.28c3.42,1.14,5.65,3.61,7.18,5.59c2.47,3.19,4.47,7.35,8.38,9.01c1.61,0.68,3.97,1.13,7.66,0.63
		l0.86-0.17c0.01-2.8,0.59-5.56,1.71-8.12c-4.77-1.62-9.26-3.97-13.31-6.97c-8.41-6.31-14.1-15.42-14.1-25.92
		c0-6.92,2.48-13.27,6.6-18.59c-1.08-4.21-0.99-8.47-0.58-11.73l0.03-0.2c0.38-2.99,0.81-6.51,2.91-8.83
		c3.03-3.36,8.14-1.38,11.72-0.16l0.01-0.01c3.86,1.31,7.53,3.11,10.92,5.38c4.79-1.22,9.71-1.84,14.65-1.83
		c5.1,0,10.03,0.64,14.64,1.82c3.39-2.26,7.06-4.06,10.92-5.37c3.58-1.22,8.68-3.19,11.72,0.16c2.06,2.28,2.57,6.11,2.93,9.02
		c0.41,3.26,0.51,7.5-0.57,11.72c4.13,5.33,6.61,11.69,6.61,18.61C199.16,151.95,193.47,161.06,185.06,167.37z"/>
</g>
</svg>
