
<!-- Generator: Adobe Illustrator 26.1.0, SVG Export Plug-In . SVG Version: 6.00 Build 0)  -->
<svg version="1.1" id="calque_linkedin" class="calque_anim" xmlns="http://www.w3.org/2000/svg" xmlns:xlink="http://www.w3.org/1999/xlink" x="0px" y="0px"
	 viewBox="0 0 300 300" style="enable-background:new 0 0 300 300;" xml:space="preserve">
<g class="animRound">
	<path class="st2" d="M41.72,118.32c-0.34-0.56-0.78-1.06-1.32-1.47c-0.54-0.42-1.15-0.72-1.84-0.9c-0.7-0.19-1.4-0.25-2.11-0.17
		c-0.71,0.08-1.37,0.27-1.98,0.59c-0.62,0.31-1.16,0.72-1.64,1.23c-0.47,0.51-0.84,1.1-1.11,1.78l10.71,2.92
		c0.12-0.72,0.11-1.42-0.02-2.1S42.06,118.89,41.72,118.32z"/>
	<path class="st2" d="M85.94,243.63c-0.64,0.14-1.25,0.39-1.82,0.77c-0.57,0.38-1.06,0.86-1.45,1.44c-0.41,0.6-0.69,1.25-0.85,1.94
		c-0.16,0.69-0.19,1.38-0.09,2.07c0.1,0.68,0.31,1.33,0.63,1.95c0.32,0.61,0.76,1.16,1.32,1.63l6.26-9.17
		c-0.64-0.35-1.3-0.57-1.99-0.67C87.25,243.47,86.59,243.49,85.94,243.63z"/>
	<path class="st2" d="M223.06,237.83c-0.29,0.63-0.46,1.28-0.52,1.93c-0.05,0.65,0.02,1.31,0.22,1.96c0.2,0.65,0.52,1.26,0.96,1.8
		c0.46,0.56,1,1.02,1.61,1.37c0.62,0.35,1.27,0.57,1.95,0.68c0.68,0.1,1.37,0.09,2.05-0.05c0.68-0.14,1.33-0.4,1.94-0.8l-7.01-8.61
		C223.76,236.62,223.35,237.19,223.06,237.83z"/>
	<path class="st2" d="M150,4.46C69.62,4.46,4.46,69.62,4.46,150c0,80.38,65.16,145.54,145.54,145.54
		c80.38,0,145.54-65.16,145.54-145.54C295.54,69.62,230.38,4.46,150,4.46z M277.48,124.63l-10.58,8.63l11.79-2.08l0.82,4.64
		l-20.17,3.55l-0.89-5.03l10.6-8.67l-11.76,2.07l-0.82-4.64l20.11-3.54L277.48,124.63z M275.26,115.13l-19.63,5.92l-1.36-4.51
		l19.63-5.92L275.26,115.13z M269.58,98.93l-0.03,0.01c0.45,1.28,0.64,2.59,0.57,3.92c-0.07,1.33-0.37,2.58-0.89,3.75
		c-0.52,1.17-1.25,2.23-2.19,3.17c-0.94,0.94-2.05,1.68-3.34,2.22c-1.27,0.53-2.56,0.79-3.86,0.78c-1.3,0-2.54-0.24-3.72-0.71
		c-1.18-0.47-2.25-1.14-3.22-2.03c-0.96-0.89-1.75-1.96-2.35-3.22l-1.81-4.36l19.02-7.89L269.58,98.93z M249.81,67.18l-5.04,4.06
		l9.19,1.1l4.25,5.28l-14.59-1.76l-1.32,13.84l16.99-9.91l6.64,11.34l-4.07,2.38l-4.24-7.28l-2.67,1.56l3.44,5.9l-4.07,2.38
		l-3.44-5.9l-2.8,1.63l4.24,7.28l-4.07,2.38l-6.62-11.35l0.2-0.12l-3.87-4.81l0.9-9.17l-5.02,4.04l-2.95-3.67l15.98-12.85
		L249.81,67.18z M234.74,52.18l-2.95,13.33l7.96-8.93l3.52,3.14L229.64,75l-3.81-3.4l2.95-13.37l-7.95,8.91l-3.52-3.14l13.59-15.25
		L234.74,52.18z M227.13,46.11l-11.76,16.8l-3.86-2.7l11.76-16.8L227.13,46.11z M209.89,35.41l4.1,2.32l-7.78,13.74l6.51,3.68
		l-2.32,4.1l-10.61-6.01L209.89,35.41z M163,21.93l5.08,0.77l4.8,12.78l1.8-11.83l4.66,0.71l-3.08,20.25l-5.05-0.77l-4.83-12.81
		l-1.79,11.81l-4.66-0.71L163,21.93z M153.63,21.61l4.71,0.16l-0.68,20.5l-4.71-0.16L153.63,21.61z M141.2,21.93l0,0.03
		c1.36-0.01,2.66,0.23,3.89,0.73c1.23,0.5,2.32,1.18,3.27,2.05c0.94,0.87,1.71,1.9,2.3,3.09c0.59,1.19,0.93,2.48,1.02,3.88
		c0.09,1.37-0.08,2.67-0.5,3.9c-0.42,1.23-1.05,2.33-1.87,3.29c-0.82,0.97-1.81,1.76-2.96,2.39c-1.15,0.63-2.42,1.02-3.81,1.18
		l-4.71,0.31l-1.33-20.55L141.2,21.93z M104.78,30.4l2.22,6.08l4-8.34l6.37-2.32L111,39.06l12.67,5.7l-3.88-19.27l12.88-2.62
		l0.93,4.62l-8.26,1.66l0.61,3.04l6.7-1.35l0.93,4.62l-6.7,1.35l0.64,3.17l8.26-1.66l0.93,4.62l-12.88,2.59l-0.05-0.23l-5.79,2.11
		l-8.39-3.8l2.21,6.06l-4.43,1.61l-7.02-19.27L104.78,30.4z M85.73,39.87l11.68,7.07L91.5,36.52l4.1-2.33L105.72,52l-4.44,2.52
		l-11.72-7.08l5.9,10.38l-4.1,2.33L81.27,42.4L85.73,39.87z M77.58,45.1l12.15,16.52l-3.8,2.79L73.78,47.9L77.58,45.1z M65.4,54.89
		l10.53,11.77l5.57-4.98l3.14,3.52l-9.09,8.13L61.89,58.04L65.4,54.89z M36.66,92.96l13.65-0.35l-10.59-5.58l2.2-4.17l18.12,9.54
		l-2.38,4.52l-13.69,0.36l10.57,5.56l-2.2,4.17L34.27,97.5L36.66,92.96z M32.6,101.81l19.15,7.35l-1.69,4.4l-19.15-7.35L32.6,101.81
		z M27.15,118.13l0.03,0.01c0.43-1.29,1.08-2.44,1.95-3.44c0.87-1.01,1.87-1.81,3-2.42c1.13-0.61,2.35-1,3.67-1.17
		c1.32-0.17,2.65-0.07,4,0.29c1.33,0.36,2.51,0.94,3.53,1.74c1.03,0.8,1.86,1.75,2.51,2.84c0.65,1.09,1.08,2.29,1.3,3.58
		c0.22,1.29,0.18,2.62-0.12,3.99l-1.24,4.55l-19.87-5.41L27.15,118.13z M23.34,155.27l6.47-0.11l-6.58-6.5l-0.11-6.78l10.44,10.35
		l9.49-10.08l-19.48-2.57l1.69-13.03l4.67,0.62l-1.1,8.35l3.07,0.41l0.89-6.78l4.68,0.62l-0.89,6.78l3.21,0.42l1.1-8.35l4.68,0.62
		l-1.72,13.03l-0.22-0.03l0.1,6.13l-6.34,6.69l6.44-0.11l0.08,4.71l-20.5,0.34L23.34,155.27z M26.03,176.35l10.51-8.72l-11.77,2.17
		l-0.85-4.64l20.14-3.71l0.93,5.02l-10.53,8.75l11.74-2.16l0.85,4.64l-20.08,3.7L26.03,176.35z M28.34,185.92l19.58-6.09l1.4,4.5
		l-19.58,6.09L28.34,185.92z M35.44,204.93l-1.83-4.35l14.56-6.12l-2.9-6.89l4.35-1.83l4.72,11.24L35.44,204.93z M60.33,240.17
		l4.1-13.02l-8.71,8.21l-3.23-3.43l14.9-14.04l3.5,3.72l-4.1,13.06l8.69-8.19l3.23,3.43l-14.87,14L60.33,240.17z M67.36,246.87
		l13.18-15.71l3.61,3.03L70.97,249.9L67.36,246.87z M81,257.33l0.02-0.02c-1.08-0.83-1.95-1.82-2.62-2.97
		c-0.67-1.15-1.1-2.36-1.31-3.63c-0.21-1.27-0.17-2.55,0.1-3.85c0.27-1.3,0.8-2.53,1.58-3.68c0.77-1.14,1.71-2.06,2.8-2.77
		c1.09-0.71,2.26-1.19,3.5-1.45c1.24-0.25,2.51-0.27,3.8-0.06c1.29,0.22,2.54,0.69,3.73,1.41l3.89,2.66l-11.6,17.01L81,257.33z
		 M114.83,273.06l2-6.15l-8.29,4.11l-6.45-2.1l13.18-6.51l-6.45-12.26l-8.81,17.55l-11.76-5.87l2.11-4.22l7.53,3.78l1.39-2.77
		l-6.11-3.07l2.11-4.21l6.11,3.07l1.45-2.89l-7.53-3.78l2.11-4.22l11.75,5.89l-0.1,0.21l5.83,1.9l4.27,8.17l2-6.13l4.48,1.46
		l-6.35,19.5L114.83,273.06z M140.81,278.11l-5.08-0.75l-4.85-12.76l-1.75,11.84l-4.66-0.69l3-20.26l5.05,0.75l4.88,12.79
		l1.75-11.81l4.66,0.69L140.81,278.11z M150.09,278.39l-4.71-0.14l0.62-20.5l4.71,0.14L150.09,278.39z M75.78,150
		c0-41.9,33.97-75.87,75.87-75.87s75.87,33.97,75.87,75.87c0,41.9-33.97,75.87-75.87,75.87S75.78,191.9,75.78,150z M161.03,278.05
		l-1.02-15.76l-7.46,0.48l-0.31-4.71l12.17-0.79l1.33,20.46L161.03,278.05z M211.91,263.33l-11.31-7.65l5.38,10.69l-4.21,2.12
		l-9.2-18.3l4.56-2.29l11.35,7.66l-5.36-10.67l4.21-2.12l9.17,18.25L211.91,263.33z M220.44,258.44l-11.31-17.1l3.93-2.6l11.31,17.1
		L220.44,258.44z M234.28,248.4l-0.02-0.02c-1.1,0.8-2.3,1.35-3.59,1.66c-1.29,0.31-2.58,0.38-3.85,0.22
		c-1.27-0.16-2.49-0.56-3.67-1.19c-1.17-0.63-2.2-1.49-3.08-2.57c-0.87-1.07-1.49-2.22-1.86-3.47c-0.37-1.25-0.5-2.5-0.39-3.77
		c0.11-1.27,0.45-2.49,1.03-3.66c0.58-1.18,1.38-2.23,2.42-3.17l3.66-2.98l13,15.97L234.28,248.4z M259.04,220.44l-5.32-3.68
		l1.56,9.12l-3.86,5.58l-2.46-14.49l-13.6,2.66l14.31,13.45l-8.98,9.6l-3.44-3.23l5.77-6.14l-2.26-2.12l-4.68,4.98l-3.44-3.23
		l4.68-4.98l-2.36-2.22l-5.77,6.14l-3.44-3.23l9-9.58l0.17,0.16l3.49-5.04l9.05-1.75l-5.3-3.67l2.68-3.88l16.86,11.67L259.04,220.44
		z M269.16,201.66l-13.62,0.98l10.84,5.08l-2,4.27l-18.54-8.69l2.17-4.62l13.65-0.99l-10.81-5.07l2-4.27l18.49,8.67L269.16,201.66z
		 M272.8,192.66l-19.46-6.45l1.48-4.48l19.46,6.45L272.8,192.66z M277.07,177.56l-15.4-3.49l-1.65,7.29l-4.6-1.04l2.7-11.89l20,4.53
		L277.07,177.56z"/>
	<path class="st2" d="M257.95,107.7c0.61,0.24,1.26,0.36,1.94,0.36c0.68,0,1.35-0.14,2.01-0.41c0.67-0.28,1.26-0.66,1.77-1.16
		c0.51-0.49,0.91-1.05,1.21-1.68c0.29-0.63,0.47-1.28,0.54-1.98s-0.01-1.39-0.22-2.09L254.95,105c0.35,0.64,0.78,1.19,1.3,1.65
		C256.77,107.11,257.34,107.46,257.95,107.7z"/>
	<path class="st2" d="M144.21,37.05c0.6-0.35,1.11-0.77,1.54-1.27c0.42-0.5,0.75-1.08,0.96-1.73c0.22-0.65,0.31-1.32,0.26-2.03
		c-0.05-0.72-0.22-1.41-0.52-2.05c-0.3-0.64-0.7-1.2-1.2-1.68c-0.5-0.48-1.06-0.86-1.7-1.15c-0.63-0.28-1.31-0.44-2.04-0.47
		l0.72,11.08C142.94,37.63,143.6,37.39,144.21,37.05z"/>
</g>
<path class="st2" d="M150,50.25c-55.09,0-99.75,44.66-99.75,99.75c0,55.09,44.66,99.75,99.75,99.75s99.75-44.66,99.75-99.75
	C249.75,94.91,205.09,50.25,150,50.25z M135.73,181.32h-14.77V133.2h14.77V181.32z M137.12,121.11c-0.48,1.14-1.18,2.18-2.06,3.05
	c-1.79,1.78-4.2,2.77-6.72,2.76c-2.51,0-4.93-0.99-6.71-2.76c-0.88-0.87-1.58-1.91-2.05-3.05c-0.48-1.14-0.72-2.37-0.73-3.61
	c0-2.5,1-4.89,2.78-6.66c1.79-1.77,4.2-2.76,6.71-2.76c2.52,0,4.93,0.99,6.72,2.76c1.78,1.77,2.78,4.16,2.78,6.66
	C137.85,118.74,137.6,119.97,137.12,121.11z M192.72,181.95h-14.77v-23.31c0-8.17-1.98-12.78-7.01-12.78
	c-6.98,0-9.88,4.97-9.88,12.78v23.32h-14.77v-48.13h13.72v6.83c1.98-3.93,7.04-7.46,14.65-7.46c14.59,0,18.06,7.82,18.06,22.17
	V181.95z"/>
</svg>
