<svg width="1280" height="72" viewBox="0 0 1280 72" fill="none" xmlns="http://www.w3.org/2000/svg">
<path fill-rule="evenodd" clip-rule="evenodd" d="M1280 22.7848L1226.67 16.6329C1173.33 10.481 1066.67 -1.82282 960 0.227812C853.333 2.27845 746.667 18.6835 640 18.6835C533.333 18.6835 426.667 2.27844 320 6.37971C213.333 10.481 106.667 35.0886 53.3333 47.3924L-6.67572e-05 59.6962V72H53.3333C106.667 72 213.333 72 320 72C426.667 72 533.333 72 640 72C746.667 72 853.333 72 960 72C1066.67 72 1173.33 72 1226.67 72H1280V22.7848Z" fill="#CC70D8"/>
</svg>
