<svg width="70" height="70" viewBox="0 0 70 70" fill="none" xmlns="http://www.w3.org/2000/svg">
<path d="M70 34.0929C70 29.4554 64.1929 25.06 55.2883 22.3358C57.3446 13.2621 56.4317 6.04041 52.4067 3.72749C51.4314 3.18126 50.3276 2.90631 49.21 2.93124V6.11041C49.8662 6.11041 50.3942 6.24166 50.8375 6.48374C52.7771 7.59791 53.62 11.8329 52.9638 17.2842C52.8063 18.6258 52.5496 20.0375 52.2346 21.4783C49.2527 20.7598 46.2263 20.2404 43.1754 19.9237C41.3579 17.4163 39.375 15.0329 37.24 12.7896C41.8921 8.46707 46.2583 6.09874 49.2275 6.09874V2.91666C45.3017 2.91666 40.1654 5.71374 34.9708 10.5642C29.7792 5.74582 24.64 2.97499 20.7171 2.97499V6.15416C23.6717 6.15416 28.0525 8.51082 32.7046 12.8042C30.7067 14.9042 28.7088 17.2842 26.81 19.9237C23.7528 20.2369 20.721 20.7612 17.7362 21.4929C17.4208 20.1273 17.1726 18.747 16.9925 17.3571C16.3217 11.9029 17.15 7.66791 19.0779 6.54207C19.5037 6.28541 20.0608 6.16874 20.7171 6.16874V2.98957C19.5213 2.98957 18.4333 3.24624 17.4942 3.78582C13.4838 6.09874 12.5854 13.3029 14.6533 22.3504C5.77792 25.0921 0 29.47 0 34.0929C0 38.7304 5.80708 43.1258 14.7117 45.8471C12.6554 54.9237 13.5683 62.1454 17.5933 64.4554C18.5208 64.9979 19.6058 65.2546 20.8017 65.2546C24.7275 65.2546 29.8638 62.4575 35.0583 57.6071C40.25 62.4283 45.3862 65.1962 49.3121 65.1962C50.4382 65.22 51.5504 64.9442 52.535 64.3971C56.5454 62.0871 57.4438 54.8829 55.3758 45.8354C64.2221 43.1112 70 38.7158 70 34.0929ZM51.4208 24.5758C50.8666 26.4829 50.2243 28.3633 49.4958 30.2108C48.3034 27.8914 46.9941 25.6339 45.5729 23.4471C47.6 23.7475 49.5542 24.1179 51.4238 24.5758H51.4208ZM44.8875 39.7717C43.8192 41.6368 42.6719 43.4555 41.4488 45.2229C37.1678 45.6002 32.8622 45.6051 28.5804 45.2375C26.1244 41.7293 23.9766 38.0151 22.1608 34.1367C23.9738 30.249 26.1125 26.5218 28.5542 22.995C32.8341 22.6169 37.1387 22.611 41.4196 22.9775C42.6038 24.675 43.7617 26.4892 44.8729 28.4025C45.9579 30.2692 46.9438 32.165 47.8421 34.0783C46.9338 36.0149 45.9481 37.9142 44.8875 39.7717ZM49.4958 37.9167C50.2658 39.8271 50.925 41.7404 51.4646 43.5954C49.5979 44.0533 47.6263 44.4383 45.5875 44.7358C47.0028 42.5291 48.3072 40.2532 49.4958 37.9167ZM35.0292 53.1417C33.7021 51.7708 32.375 50.2454 31.0625 48.5742C32.3458 48.6325 33.6583 48.6762 34.9854 48.6762C36.3271 48.6762 37.6542 48.6471 38.9521 48.5742C37.6688 50.2454 36.3417 51.7708 35.0292 53.1417ZM24.4125 44.7358C22.4459 44.4509 20.4936 44.0752 18.5617 43.61C19.0896 41.7696 19.7458 39.8708 20.4867 37.975C21.0729 39.1125 21.6883 40.2558 22.3592 41.3992C23.03 42.5396 23.7125 43.6537 24.4125 44.7358ZM34.9562 15.0442C36.2833 16.415 37.6104 17.9404 38.9229 19.6117C37.6396 19.5533 36.3271 19.5096 35 19.5096C33.6583 19.5096 32.3313 19.5387 31.0333 19.6117C32.3167 17.9404 33.6437 16.415 34.9562 15.0442ZM24.3979 23.45C22.983 25.6519 21.6786 27.9229 20.4896 30.2546C19.7406 28.3951 19.0836 26.4999 18.5208 24.5758C20.3875 24.1325 22.3592 23.7475 24.3979 23.45ZM11.4858 41.3117C6.43417 39.1592 3.1675 36.3329 3.1675 34.0929C3.1675 31.8529 6.43417 29.0121 11.4858 26.8742C12.7108 26.3462 14.0525 25.8737 15.4379 25.4333C16.2517 28.2275 17.3221 31.1383 18.6463 34.1221C17.3961 36.9284 16.3388 39.8168 15.4817 42.7671C14.1267 42.3475 12.7932 41.8618 11.4858 41.3117ZM19.1625 61.6992C17.2229 60.5908 16.38 56.35 17.0363 50.9017C17.1938 49.56 17.4504 48.1454 17.7654 46.7046C20.5596 47.39 23.6133 47.9179 26.8246 48.2621C28.6422 50.7695 30.6251 53.1528 32.76 55.3962C28.1079 59.7187 23.7417 62.0871 20.7725 62.0871C20.2123 62.0932 19.6593 61.9609 19.1625 61.7021V61.6992ZM53.0075 50.8287C53.6783 56.28 52.85 60.5179 50.9221 61.6437C50.4963 61.9004 49.9392 62.0142 49.2829 62.0142C46.3283 62.0142 41.9475 59.6604 37.2954 55.3642C39.4215 53.1302 41.391 50.7523 43.19 48.2475C46.2472 47.9343 49.279 47.41 52.2638 46.6783C52.5933 48.1192 52.8471 49.5017 53.0075 50.8287ZM58.4996 41.3117C57.2746 41.8396 55.9329 42.3121 54.5475 42.7525C53.6753 39.7872 52.6034 36.8843 51.3392 34.0637C52.6517 31.0975 53.7046 28.2012 54.5038 25.4187C55.863 25.8397 57.2013 26.3254 58.5142 26.8742C63.5658 29.0267 66.8325 31.8529 66.8325 34.0929C66.8179 36.3329 63.5513 39.1737 58.4996 41.3117Z" fill="#56B3D6"/>
<path d="M34.9855 40.6146C36.7152 40.6146 38.374 39.9275 39.597 38.7044C40.8201 37.4814 41.5072 35.8226 41.5072 34.0929C41.5072 32.3632 40.8201 30.7044 39.597 29.4814C38.374 28.2583 36.7152 27.5712 34.9855 27.5712C33.2559 27.5712 31.5971 28.2583 30.374 29.4814C29.151 30.7044 28.4639 32.3632 28.4639 34.0929C28.4639 35.8226 29.151 37.4814 30.374 38.7044C31.5971 39.9275 33.2559 40.6146 34.9855 40.6146Z" fill="#56B3D6"/>
</svg>
