<?xml version="1.0" encoding="utf-8"?>
<!-- Generator: Adobe Illustrator 26.1.0, SVG Export Plug-In . SVG Version: 6.00 Build 0)  -->
<svg version="1.1" id="calque_resume" class="calque_anim" xmlns="http://www.w3.org/2000/svg" xmlns:xlink="http://www.w3.org/1999/xlink" x="0px" y="0px"
	 viewBox="0 0 300 300" style="enable-background:new 0 0 300 300;" xml:space="preserve">
<g class="animRound">
	<path class="st2" d="M45.96,195.68c-0.43-0.24-0.87-0.38-1.33-0.43c-0.45-0.04-0.88,0.02-1.29,0.2c-0.41,0.18-0.75,0.45-1.01,0.81
		c-0.26,0.36-0.45,0.78-0.56,1.26c-0.11,0.48-0.15,1-0.1,1.55c0.05,0.55,0.17,1.09,0.39,1.63l6.06-2.68
		c-0.25-0.52-0.57-0.98-0.94-1.38C46.8,196.24,46.4,195.92,45.96,195.68z"/>
	<path class="st2" d="M161.96,262.26c-0.5,0.23-0.94,0.51-1.3,0.85c-0.36,0.33-0.64,0.71-0.82,1.12c-0.19,0.41-0.26,0.84-0.22,1.29
		c0.04,0.44,0.19,0.85,0.45,1.21c0.26,0.36,0.6,0.67,1.02,0.93c0.42,0.26,0.9,0.45,1.44,0.59c0.54,0.13,1.09,0.18,1.67,0.15
		l-0.63-6.59C163,261.87,162.46,262.03,161.96,262.26z"/>
	<path class="st2" d="M73.3,63.09c-0.3-0.33-0.66-0.57-1.09-0.7c-0.42-0.13-0.88-0.18-1.38-0.13c-0.49,0.04-0.99,0.17-1.5,0.39
		c-0.51,0.22-0.98,0.51-1.43,0.88l4.45,4.91c0.41-0.4,0.75-0.85,1.02-1.33c0.27-0.48,0.44-0.97,0.54-1.46
		C74,65.16,74,64.7,73.9,64.25C73.8,63.81,73.6,63.42,73.3,63.09z"/>
	<path class="st2" d="M150,4.83C69.82,4.83,4.83,69.82,4.83,150c0,80.18,65,145.17,145.17,145.17c80.18,0,145.17-65,145.17-145.17
		C295.17,69.82,230.18,4.83,150,4.83z M274.82,144.71l-5.38,0.55l-0.98-9.61l-3.53,0.36l0.8,7.8l-5.38,0.55l-0.8-7.8l-3.69,0.38
		l0.98,9.61l-5.38,0.55l-1.53-14.99l23.33-2.39L274.82,144.71z M267.73,108.39l-12.55,9.26l15.55,0.46l1.64,5.32l-22.07,8.25
		l-1.59-5.17l9-3.38l-10.14-0.29l-1.59-5.17l8.52-6.25l-9.73,2.33l-1.6-5.2l22.91-5.5L267.73,108.39z M254.37,81.1l2.65,4.71
		L244.26,93c-0.82,0.46-1.36,1.17-1.63,2.13c-0.23,0.94-0.11,1.82,0.36,2.66c0.23,0.41,0.53,0.75,0.91,1.03
		c0.38,0.28,0.78,0.48,1.22,0.6c0.44,0.12,0.88,0.15,1.34,0.09c0.46-0.06,0.9-0.21,1.32-0.45l12.69-7.14l2.65,4.71l-12.66,7.13
		c-1.05,0.62-2.16,0.99-3.33,1.13c-1.17,0.13-2.31,0.05-3.41-0.25c-1.1-0.3-2.12-0.8-3.07-1.5c-0.95-0.7-1.73-1.58-2.34-2.63
		l-0.05-0.08c-0.59-1.04-0.95-2.13-1.09-3.28c-0.14-1.14-0.06-2.28,0.23-3.4c0.33-1.16,0.84-2.2,1.54-3.13s1.58-1.69,2.63-2.31
		L254.37,81.1z M241.93,67.6c0.78,0.11,1.51,0.33,2.2,0.67c0.69,0.35,1.31,0.81,1.88,1.39c0.57,0.58,1.03,1.26,1.4,2.04
		c0.37,0.75,0.6,1.5,0.7,2.28c0.1,0.77,0.08,1.53-0.07,2.27c-0.15,0.74-0.42,1.44-0.82,2.1c-0.4,0.66-0.9,1.24-1.51,1.74l-3.43-4.14
		c0.38-0.31,0.54-0.65,0.49-1.01c-0.05-0.36-0.12-0.65-0.22-0.87c-0.03-0.03-0.08-0.12-0.16-0.26c-0.08-0.14-0.19-0.28-0.35-0.42
		c-0.15-0.13-0.34-0.25-0.57-0.34c-0.23-0.09-0.48-0.1-0.76-0.04c-0.37,0.08-0.67,0.29-0.89,0.61c-0.22,0.32-0.31,0.67-0.27,1.05
		c0.06,0.34,0.15,0.69,0.27,1.06s0.27,0.75,0.43,1.14c0.15,0.35,0.29,0.71,0.43,1.08c0.14,0.37,0.26,0.75,0.38,1.15
		c0.4,1.49,0.38,2.93-0.07,4.33c-0.45,1.4-1.25,2.58-2.42,3.55c-1.15,0.95-2.46,1.51-3.92,1.69c-1.46,0.18-2.88-0.07-4.27-0.74
		c-0.55-0.26-1.05-0.58-1.51-0.95c-0.46-0.37-0.87-0.77-1.24-1.22c-0.48-0.57-0.87-1.21-1.18-1.91c-0.31-0.7-0.52-1.44-0.61-2.22
		c-0.16-1.36,0.01-2.67,0.52-3.92c0.5-1.25,1.3-2.32,2.38-3.22l3.45,4.17c-0.49,0.41-0.79,0.83-0.88,1.27
		c-0.09,0.44-0.12,0.78-0.08,1.03c0.05,0.46,0.21,0.87,0.47,1.23c0.27,0.36,0.61,0.64,1.03,0.85c0.29,0.15,0.56,0.23,0.83,0.25
		c0.26,0.02,0.5,0.01,0.7-0.04c0.2-0.04,0.37-0.11,0.52-0.2c0.14-0.09,0.26-0.17,0.34-0.24c0.08-0.07,0.18-0.17,0.3-0.29
		c0.12-0.12,0.22-0.29,0.31-0.48c0.09-0.2,0.14-0.42,0.17-0.68c0.02-0.25,0-0.54-0.08-0.87c-0.07-0.25-0.15-0.5-0.26-0.76
		c-0.1-0.26-0.21-0.54-0.32-0.84c-0.21-0.52-0.41-1.07-0.62-1.65c-0.2-0.58-0.35-1.21-0.44-1.88c-0.11-0.87-0.06-1.73,0.15-2.58
		c0.22-0.84,0.56-1.61,1.05-2.3c0.48-0.69,1.08-1.28,1.79-1.77c0.71-0.49,1.5-0.84,2.37-1.03C240.36,67.52,241.15,67.49,241.93,67.6
		z M237.67,61l-3.55,4.08l-7.28-6.35l-2.34,2.67l5.91,5.15l-3.56,4.08l-5.91-5.16l-2.44,2.8l7.28,6.35l-3.56,4.08l-11.35-9.91
		l15.42-17.67L237.67,61z M207.45,39.1l4.63,2.8c1.14,0.72,2.09,1.58,2.85,2.58c0.76,1.01,1.31,2.08,1.66,3.21
		c0.35,1.13,0.47,2.28,0.36,3.43c-0.11,1.15-0.48,2.24-1.09,3.26c-0.65,1.07-1.48,1.93-2.5,2.58c-1.01,0.64-2.14,1.05-3.36,1.23
		l0.1,9.85l-5.45-3.3l-0.08-7.16c-0.26-0.11-0.51-0.22-0.76-0.35c-0.25-0.12-0.51-0.26-0.77-0.39l-3.07,5.06l-4.63-2.8L207.45,39.1z
		 M166.01,26.13l14.81,2.78l-1.01,5.31l-9.49-1.81l-0.66,3.49l7.7,1.46l-1.01,5.31l-7.7-1.46l-0.69,3.65l9.49,1.8l-1.01,5.31
		l-14.8-2.81L166.01,26.13z M138.38,25.44l5.57-0.09l5.39,14.63l4.78-14.8l5.57-0.09l1.76,23.49l-5.41,0.09l-0.73-9.59l-3.11,9.65
		l-5.41,0.09l-3.62-9.92l-0.48,9.99l-5.44,0.09L138.38,25.44z M119.36,29.01l3.18,14.31c0.2,0.91,0.73,1.64,1.57,2.18
		c0.83,0.49,1.71,0.63,2.65,0.43c0.46-0.1,0.87-0.29,1.25-0.57c0.38-0.28,0.68-0.61,0.93-0.99c0.24-0.38,0.4-0.8,0.48-1.25
		c0.07-0.45,0.06-0.92-0.05-1.4l-3.16-14.21l5.28-1.17l3.16,14.18c0.28,1.18,0.32,2.35,0.11,3.52c-0.21,1.16-0.62,2.23-1.22,3.19
		c-0.6,0.96-1.38,1.8-2.33,2.5c-0.95,0.7-2.01,1.2-3.2,1.48l-0.09,0.02c-1.17,0.26-2.32,0.29-3.45,0.1c-1.14-0.19-2.2-0.6-3.19-1.21
		c-1.02-0.65-1.87-1.44-2.55-2.38c-0.68-0.94-1.16-2-1.45-3.18l-3.19-14.34L119.36,29.01z M97.54,38.22
		c0.32-0.72,0.75-1.35,1.28-1.91c0.53-0.56,1.15-1.02,1.88-1.4c0.72-0.38,1.51-0.62,2.36-0.75c0.82-0.14,1.61-0.14,2.38-0.02
		c0.77,0.13,1.49,0.37,2.15,0.72s1.26,0.82,1.78,1.38c0.52,0.57,0.93,1.22,1.24,1.95l-4.96,2.09c-0.19-0.45-0.47-0.71-0.83-0.76
		c-0.36-0.06-0.66-0.07-0.9-0.04c-0.04,0.02-0.14,0.04-0.3,0.07c-0.16,0.03-0.33,0.1-0.5,0.21c-0.17,0.11-0.34,0.26-0.49,0.45
		c-0.15,0.19-0.24,0.43-0.25,0.71c-0.03,0.38,0.08,0.72,0.33,1.03c0.24,0.3,0.56,0.49,0.93,0.56c0.34,0.04,0.71,0.06,1.09,0.04
		c0.39-0.01,0.79-0.04,1.22-0.08c0.38-0.04,0.76-0.08,1.15-0.11c0.39-0.03,0.8-0.04,1.22-0.03c1.54,0.04,2.92,0.48,4.13,1.31
		c1.21,0.83,2.12,1.94,2.7,3.34c0.58,1.37,0.75,2.79,0.49,4.24c-0.25,1.45-0.9,2.74-1.94,3.87c-0.41,0.45-0.85,0.84-1.34,1.17
		c-0.48,0.33-0.99,0.61-1.52,0.83c-0.69,0.29-1.41,0.49-2.17,0.59c-0.76,0.1-1.52,0.08-2.3-0.06c-1.35-0.24-2.55-0.78-3.6-1.62
		c-1.05-0.84-1.85-1.91-2.4-3.21l4.98-2.1c0.25,0.59,0.57,0.99,0.96,1.21c0.39,0.22,0.71,0.34,0.96,0.38
		c0.45,0.08,0.89,0.05,1.31-0.1c0.42-0.15,0.79-0.4,1.11-0.75c0.23-0.24,0.38-0.48,0.48-0.72c0.09-0.25,0.15-0.47,0.17-0.68
		c0.02-0.2,0-0.39-0.04-0.56c-0.05-0.16-0.09-0.3-0.13-0.39c-0.04-0.1-0.1-0.22-0.19-0.37c-0.09-0.15-0.21-0.29-0.37-0.43
		c-0.16-0.14-0.36-0.26-0.6-0.35c-0.24-0.1-0.52-0.16-0.86-0.18c-0.26-0.01-0.53,0-0.8,0.03c-0.28,0.03-0.58,0.05-0.89,0.06
		c-0.56,0.05-1.14,0.09-1.76,0.12c-0.61,0.03-1.26-0.01-1.93-0.12c-0.87-0.14-1.68-0.44-2.42-0.89s-1.38-1-1.9-1.67
		c-0.52-0.66-0.92-1.4-1.18-2.23c-0.27-0.82-0.37-1.68-0.3-2.57C97.02,39.7,97.21,38.93,97.54,38.22z M89.96,40.42l2.88,4.57
		l-8.17,5.15l1.89,3l6.63-4.18l2.88,4.57l-6.63,4.18l1.98,3.14l8.17-5.15l2.88,4.57l-12.75,8.04L77.23,48.48L89.96,40.42z
		 M64.28,59.52c1.01-0.89,2.11-1.55,3.29-1.99c1.18-0.44,2.37-0.67,3.55-0.68c1.18-0.01,2.31,0.2,3.39,0.64
		c1.07,0.44,2.01,1.1,2.81,1.98c0.84,0.93,1.43,1.97,1.76,3.13c0.33,1.15,0.4,2.35,0.22,3.58l9.46,2.72l-4.72,4.28l-6.88-1.97
		c-0.18,0.22-0.36,0.43-0.55,0.63c-0.19,0.2-0.39,0.41-0.6,0.63l3.97,4.39l-4.01,3.63L60.27,63.15L64.28,59.52z M44.73,82.7
		l4.72,2.63l-4.71,8.44l3.1,1.73l3.82-6.85l4.72,2.63l-3.82,6.85l3.24,1.81l4.71-8.44l4.72,2.63L57.9,107.3L37.42,95.87L44.73,82.7z
		 M29.74,116.42l15.59-0.38l-12.46-9.31l1.71-5.3l22.8,5.92l-1.66,5.15l-9.31-2.4l8.13,6.05l-1.66,5.15l-10.56,0.22l9.3,3.68
		l-1.67,5.17l-21.92-8.66L29.74,116.42z M25.53,141.08l14.58,1.45c0.93,0.09,1.79-0.18,2.56-0.81c0.73-0.63,1.14-1.43,1.23-2.38
		c0.05-0.47,0-0.92-0.15-1.37c-0.15-0.44-0.37-0.84-0.65-1.19c-0.29-0.35-0.63-0.63-1.04-0.84c-0.41-0.21-0.85-0.34-1.34-0.39
		l-14.49-1.44l0.53-5.38l14.46,1.44c1.21,0.1,2.34,0.43,3.37,0.99c1.04,0.56,1.92,1.28,2.65,2.16c0.73,0.87,1.28,1.87,1.65,2.99
		c0.37,1.12,0.51,2.29,0.41,3.5l-0.01,0.1c-0.12,1.19-0.45,2.29-0.99,3.31c-0.54,1.02-1.26,1.9-2.14,2.65
		c-0.93,0.77-1.95,1.32-3.06,1.68c-1.11,0.35-2.26,0.48-3.48,0.38L25,146.46L25.53,141.08z M25.26,160.62
		c-0.13-0.8-0.12-1.63,0.03-2.47c0.13-0.82,0.37-1.58,0.74-2.26c0.36-0.69,0.82-1.29,1.37-1.81c0.55-0.52,1.17-0.94,1.88-1.25
		c0.7-0.31,1.45-0.5,2.23-0.56l0.42,5.36c-0.49,0.04-0.82,0.22-0.98,0.54c-0.17,0.32-0.27,0.61-0.32,0.84c0,0.04,0,0.15-0.02,0.31
		c-0.02,0.16-0.01,0.34,0.04,0.54c0.05,0.2,0.14,0.4,0.27,0.61s0.33,0.36,0.6,0.47c0.35,0.15,0.71,0.15,1.08,0.01
		c0.36-0.13,0.64-0.37,0.83-0.71c0.15-0.31,0.27-0.65,0.38-1.02c0.11-0.37,0.21-0.77,0.31-1.18c0.08-0.37,0.17-0.75,0.26-1.13
		c0.1-0.38,0.22-0.77,0.36-1.16c0.53-1.45,1.38-2.61,2.55-3.5c1.17-0.89,2.51-1.4,4.02-1.51c1.49-0.12,2.88,0.17,4.18,0.87
		c1.3,0.7,2.32,1.72,3.06,3.06c0.3,0.53,0.53,1.08,0.69,1.64c0.16,0.57,0.27,1.13,0.31,1.71c0.06,0.75,0.02,1.49-0.13,2.24
		c-0.15,0.75-0.4,1.47-0.78,2.16c-0.65,1.21-1.55,2.18-2.68,2.91c-1.13,0.73-2.4,1.15-3.8,1.26l-0.42-5.39
		c0.64-0.05,1.12-0.22,1.45-0.53c0.33-0.3,0.55-0.57,0.66-0.79c0.23-0.4,0.33-0.83,0.32-1.28c-0.01-0.45-0.13-0.88-0.36-1.29
		c-0.15-0.29-0.33-0.51-0.54-0.68s-0.4-0.29-0.59-0.37c-0.19-0.08-0.37-0.13-0.54-0.13c-0.17-0.01-0.31-0.01-0.42,0
		c-0.11,0.01-0.24,0.03-0.41,0.07c-0.17,0.03-0.34,0.11-0.53,0.22c-0.18,0.11-0.36,0.26-0.53,0.46c-0.17,0.19-0.31,0.45-0.44,0.76
		c-0.09,0.24-0.16,0.5-0.23,0.77c-0.06,0.27-0.14,0.56-0.22,0.87c-0.13,0.55-0.28,1.11-0.44,1.7c-0.17,0.59-0.41,1.19-0.73,1.79
		c-0.41,0.78-0.94,1.45-1.61,2.02c-0.66,0.57-1.39,0.99-2.18,1.28s-1.62,0.43-2.49,0.42c-0.87-0.01-1.71-0.18-2.53-0.52
		c-0.75-0.33-1.42-0.76-1.99-1.29c-0.58-0.53-1.05-1.14-1.41-1.81C25.63,162.16,25.39,161.42,25.26,160.62z M27.09,172.49l5.25-1.29
		l2.3,9.38l3.45-0.85l-1.87-7.61l5.25-1.29l1.87,7.61l3.6-0.89l-2.31-9.38l5.25-1.29l3.6,14.63l-22.78,5.6L27.09,172.49z
		 M39.3,207.84l-2.19-4.94c-0.52-1.24-0.81-2.49-0.85-3.75c-0.05-1.26,0.11-2.46,0.48-3.59c0.36-1.13,0.92-2.13,1.67-3.01
		c0.75-0.88,1.67-1.56,2.76-2.05c1.15-0.51,2.32-0.73,3.52-0.68s2.35,0.36,3.46,0.92l5.56-8.12l2.57,5.82l-4.03,5.91
		c0.15,0.24,0.29,0.48,0.42,0.72c0.13,0.25,0.27,0.5,0.41,0.77l5.41-2.39l2.19,4.94L39.3,207.84z M53.02,228.76L57,225.1l6.54,7.12
		l2.62-2.4l-5.3-5.77l3.98-3.66l5.3,5.77l2.73-2.51l-6.54-7.11l3.98-3.66l10.19,11.1l-17.27,15.87L53.02,228.76z M80.31,253.58
		l4.56-14.91l-12.76,8.89l-4.49-3.3l12.8-19.77l4.36,3.2l-5.21,8.08l8.31-5.81l4.36,3.2l-3.12,10.09l6.42-7.67l4.38,3.22
		L84.8,256.88L80.31,253.58z M113.31,254.17l-5.99,13.41l-4.94-2.21l5.98-13.38c0.38-0.86,0.4-1.75,0.04-2.68
		c-0.37-0.89-1-1.53-1.87-1.92c-0.43-0.19-0.88-0.29-1.35-0.29c-0.47,0-0.91,0.08-1.33,0.24c-0.42,0.16-0.8,0.4-1.13,0.72
		c-0.33,0.32-0.59,0.7-0.8,1.15l-5.94,13.29l-4.94-2.2l5.92-13.26c0.48-1.12,1.15-2.08,2.01-2.89c0.86-0.81,1.82-1.42,2.88-1.83
		c1.06-0.41,2.18-0.62,3.36-0.62c1.18,0,2.33,0.24,3.45,0.72l0.09,0.04c1.09,0.49,2.03,1.15,2.83,1.98c0.8,0.83,1.41,1.79,1.84,2.87
		c0.43,1.13,0.64,2.27,0.62,3.43C114.04,251.91,113.79,253.05,113.31,254.17z M131.79,257.58l-5.25-1.29
		c0.15-0.62,0.13-1.13-0.05-1.54c-0.19-0.41-0.37-0.7-0.54-0.87c-0.31-0.34-0.68-0.57-1.11-0.7c-0.43-0.13-0.87-0.15-1.33-0.06
		c-0.32,0.05-0.59,0.15-0.81,0.3c-0.22,0.14-0.4,0.29-0.54,0.44s-0.24,0.31-0.3,0.47c-0.06,0.16-0.11,0.29-0.13,0.4
		c-0.03,0.11-0.05,0.24-0.07,0.41c-0.02,0.17-0.01,0.36,0.04,0.57c0.05,0.21,0.14,0.42,0.27,0.64c0.13,0.22,0.33,0.44,0.58,0.65
		c0.2,0.16,0.42,0.31,0.66,0.46c0.24,0.15,0.49,0.31,0.75,0.48c0.48,0.29,0.97,0.61,1.48,0.95c0.51,0.34,1,0.76,1.47,1.25
		c0.61,0.63,1.08,1.35,1.42,2.16c0.33,0.81,0.51,1.63,0.53,2.47c0.03,0.84-0.1,1.67-0.38,2.49c-0.28,0.82-0.71,1.57-1.29,2.24
		c-0.54,0.61-1.16,1.11-1.85,1.49c-0.69,0.38-1.41,0.64-2.16,0.77c-0.76,0.13-1.54,0.13-2.34,0c-0.8-0.13-1.58-0.4-2.34-0.8
		c-0.74-0.38-1.38-0.85-1.92-1.41c-0.54-0.56-0.97-1.18-1.3-1.87s-0.52-1.41-0.6-2.17c-0.07-0.76-0.02-1.53,0.17-2.3l5.23,1.28
		c-0.12,0.48-0.05,0.85,0.21,1.1c0.26,0.26,0.49,0.45,0.7,0.57c0.04,0.01,0.14,0.05,0.28,0.12c0.15,0.07,0.32,0.11,0.53,0.13
		c0.2,0.02,0.43-0.01,0.66-0.07c0.24-0.06,0.45-0.2,0.63-0.42c0.25-0.29,0.36-0.63,0.35-1.02c-0.01-0.39-0.15-0.72-0.41-1
		c-0.25-0.24-0.53-0.47-0.85-0.69c-0.32-0.22-0.66-0.44-1.02-0.66c-0.33-0.19-0.66-0.39-0.99-0.61c-0.33-0.21-0.66-0.45-0.99-0.7
		c-1.21-0.95-2.05-2.13-2.53-3.52c-0.48-1.39-0.54-2.82-0.18-4.29c0.35-1.45,1.07-2.68,2.13-3.69c1.07-1.01,2.35-1.66,3.87-1.95
		c0.6-0.12,1.19-0.17,1.78-0.14c0.59,0.02,1.16,0.1,1.72,0.24c0.73,0.18,1.42,0.45,2.09,0.82c0.67,0.37,1.27,0.84,1.81,1.41
		c0.94,1,1.58,2.15,1.92,3.45C132.12,254.88,132.13,256.22,131.79,257.58z M147.81,274.88l-15.03-1.13l0.41-5.39l9.63,0.74
		l0.27-3.54l-7.82-0.6l0.41-5.39l7.82,0.6l0.28-3.7l-9.63-0.74l0.41-5.39l15.02,1.15L147.81,274.88z M75.97,150
		c0-41.8,33.88-75.68,75.68-75.68s75.68,33.88,75.68,75.68c0,41.8-33.88,75.68-75.68,75.68S75.97,191.8,75.97,150z M164.71,273.77
		c-1.34,0.11-2.62-0.02-3.83-0.37c-1.21-0.36-2.3-0.89-3.25-1.59c-0.96-0.7-1.73-1.55-2.33-2.54c-0.6-0.99-0.95-2.08-1.07-3.27
		c-0.12-1.25,0.04-2.44,0.47-3.56c0.43-1.12,1.08-2.12,1.96-2.99l-5.95-7.84l6.34-0.61l4.33,5.7c0.27-0.07,0.54-0.13,0.82-0.17
		c0.27-0.05,0.56-0.1,0.85-0.15l-0.56-5.89l5.38-0.51l2.22,23.28L164.71,273.77z M194.35,266.82l-2.22-4.93l8.81-3.97l-1.46-3.24
		l-7.15,3.22l-2.22-4.93l7.15-3.22l-1.53-3.38l-8.81,3.97l-2.22-4.93l13.74-6.2l9.65,21.38L194.35,266.82z M226.46,248.68
		l-12.74-8.99l4.46,14.9l-4.53,3.23l-14.78-18.35l4.4-3.14l6.04,7.48l-2.92-9.71l4.4-3.14l8.61,6.12l-5.28-8.5l4.43-3.16
		l12.43,20.02L226.46,248.68z M244.51,231.48l-10.82-9.88c-0.69-0.63-1.54-0.93-2.53-0.88c-0.96,0.07-1.77,0.47-2.42,1.17
		c-0.32,0.35-0.55,0.74-0.69,1.19c-0.15,0.44-0.21,0.89-0.19,1.35c0.02,0.45,0.13,0.88,0.33,1.3c0.2,0.41,0.48,0.78,0.84,1.12
		l10.75,9.82l-3.65,3.99l-10.73-9.79c-0.91-0.81-1.61-1.74-2.11-2.81c-0.49-1.07-0.77-2.18-0.83-3.31c-0.06-1.14,0.1-2.27,0.47-3.39
		c0.37-1.12,0.96-2.14,1.76-3.05l0.06-0.07c0.81-0.88,1.73-1.57,2.77-2.06c1.04-0.49,2.14-0.77,3.3-0.84
		c1.21-0.06,2.36,0.11,3.45,0.49c1.1,0.38,2.1,0.97,3.01,1.78l10.85,9.9L244.51,231.48z M257.17,213.71
		c-0.12,0.76-0.36,1.5-0.74,2.22c-0.38,0.72-0.88,1.38-1.5,1.97c-0.59,0.58-1.24,1.04-1.94,1.38c-0.7,0.34-1.43,0.55-2.18,0.64
		c-0.75,0.09-1.5,0.05-2.25-0.12c-0.75-0.17-1.46-0.47-2.13-0.89l2.86-4.55c0.41,0.26,0.79,0.31,1.11,0.15
		c0.33-0.16,0.58-0.32,0.76-0.49c0.02-0.04,0.09-0.11,0.2-0.23c0.11-0.12,0.21-0.27,0.29-0.46c0.08-0.19,0.13-0.4,0.14-0.65
		c0.01-0.24-0.05-0.49-0.2-0.73c-0.2-0.33-0.48-0.54-0.86-0.65c-0.37-0.11-0.73-0.08-1.08,0.07c-0.3,0.16-0.61,0.36-0.92,0.59
		c-0.31,0.23-0.63,0.49-0.95,0.76c-0.28,0.25-0.58,0.5-0.88,0.75c-0.31,0.25-0.63,0.49-0.98,0.72c-1.29,0.85-2.67,1.27-4.13,1.29
		c-1.47,0.02-2.85-0.38-4.13-1.19c-1.26-0.79-2.21-1.86-2.83-3.19c-0.63-1.33-0.84-2.76-0.63-4.29c0.08-0.6,0.22-1.18,0.43-1.73
		c0.21-0.55,0.46-1.07,0.77-1.56c0.4-0.63,0.88-1.21,1.44-1.72c0.56-0.52,1.2-0.94,1.91-1.27c1.24-0.58,2.54-0.82,3.88-0.73
		c1.34,0.09,2.61,0.51,3.8,1.26l-2.88,4.58c-0.54-0.34-1.04-0.49-1.48-0.44c-0.45,0.05-0.78,0.13-1,0.24
		c-0.42,0.19-0.76,0.47-1.02,0.84c-0.26,0.37-0.42,0.78-0.48,1.25c-0.05,0.32-0.04,0.61,0.02,0.86c0.07,0.26,0.15,0.47,0.25,0.65
		c0.1,0.18,0.22,0.32,0.35,0.43c0.13,0.11,0.24,0.19,0.34,0.25c0.09,0.06,0.21,0.12,0.37,0.19c0.16,0.07,0.34,0.12,0.56,0.14
		c0.21,0.02,0.45,0,0.7-0.06c0.25-0.06,0.52-0.17,0.8-0.35c0.21-0.14,0.43-0.3,0.64-0.48c0.21-0.18,0.45-0.37,0.7-0.56
		c0.43-0.36,0.89-0.73,1.37-1.1c0.49-0.38,1.04-0.71,1.65-1c0.79-0.38,1.63-0.6,2.49-0.66c0.87-0.06,1.7,0.03,2.51,0.27
		c0.8,0.24,1.55,0.62,2.25,1.15c0.69,0.52,1.26,1.17,1.72,1.93c0.41,0.71,0.69,1.45,0.83,2.22
		C257.27,212.18,257.28,212.94,257.17,213.71z M262.07,205.26l-4.98-2.1l3.74-8.91l-3.27-1.38l-3.04,7.23l-4.98-2.09l3.04-7.23
		l-3.42-1.44l-3.74,8.91l-4.98-2.1l5.84-13.89l21.62,9.09L262.07,205.26z M272.14,174.92c-0.32,1.31-0.84,2.48-1.55,3.52
		c-0.72,1.04-1.56,1.91-2.52,2.6c-0.97,0.69-2.01,1.16-3.14,1.42c-1.13,0.26-2.28,0.26-3.44-0.01c-1.22-0.28-2.3-0.8-3.23-1.55
		s-1.68-1.69-2.23-2.8l-9.31,3.2l1.41-6.21l6.76-2.34c0.02-0.28,0.05-0.56,0.09-0.83c0.04-0.27,0.08-0.56,0.13-0.86l-5.77-1.31
		l1.2-5.28l22.81,5.17L272.14,174.92z"/>
	<path class="st2" d="M208.96,52.88c0.49-0.05,0.94-0.19,1.33-0.41c0.4-0.22,0.71-0.53,0.94-0.91c0.23-0.38,0.35-0.8,0.36-1.24
		c0.01-0.44-0.08-0.9-0.26-1.36c-0.18-0.46-0.45-0.9-0.8-1.33c-0.35-0.43-0.77-0.8-1.25-1.11l-3.43,5.66
		c0.5,0.28,1.03,0.48,1.57,0.59C207.95,52.9,208.47,52.93,208.96,52.88z"/>
	<path class="st2" d="M261.55,176.57c0.34,0.3,0.72,0.51,1.16,0.61c0.44,0.1,0.87,0.08,1.3-0.05c0.42-0.13,0.82-0.36,1.2-0.68
		c0.38-0.32,0.71-0.71,1.01-1.18c0.29-0.47,0.51-0.98,0.66-1.54l-6.46-1.46c-0.11,0.57-0.13,1.12-0.07,1.67
		c0.06,0.55,0.2,1.05,0.4,1.5C260.94,175.88,261.21,176.26,261.55,176.57z"/>
</g>
<g>
	<polygon class="st2" points="158.89,136.28 185.33,136.28 158.89,109.85 	"/>
	<path class="st2" d="M151.65,66.59c-46.45,0-84.11,37.66-84.11,84.11c0,46.45,37.66,84.11,84.11,84.11s84.11-37.66,84.11-84.11
		C235.76,104.25,198.1,66.59,151.65,66.59z M192.54,189.15c0,5.29-4.33,9.61-9.61,9.61H125.2c-5.29,0-9.56-4.33-9.56-9.61l0.05-76.9
		c0-5.29,4.28-9.61,9.56-9.61h38.45l28.84,28.84V189.15z"/>
</g>
</svg>
