<svg width="65" height="66" viewBox="0 0 65 66" fill="none" xmlns="http://www.w3.org/2000/svg">
<g clip-path="url(#clip0_840_131)">
<path d="M32.7821 -4.21332e-05C19.9898 -0.0225481 7.94949 7.64355 2.42377 19.7781L17.9611 19.8155V21.5328C13.1768 20.9509 13.598 23.4618 14.2753 26.1268L24.4749 51.9612L31.9716 34.2011L28.53 25.878C27.28 23.6487 27.2536 21.1755 22.1394 21.4084L22.2113 19.8258L44.999 19.8819V21.6552C42.3303 21.8134 39.1178 20.9771 40.8207 26.5002L50.0372 50.9677L55.0754 36.6837C56.7252 30.696 55.1725 24.9417 53.212 19.299C52.1216 15.5136 52.6302 12.3523 57.5176 11.0982C50.0575 3.40226 41.255 0.0148739 32.7823 -4.21332e-05H32.7821ZM63.7745 22.5885L49.0006 61.5079C53.0806 57.9367 57.264 56.6367 62.3831 46.7552C65.789 38.5361 65.4384 30.922 63.7745 22.5884V22.5885ZM0.859971 23.219C-0.582029 34.7086 -0.450113 38.0738 3.11946 47.4563C7.77244 56.4425 11.3807 58.3358 16.5019 61.8606L0.859906 23.219H0.859971ZM33.3588 37.7974L22.4102 64.4946C30.0954 66.7114 36.9718 66.434 43.2668 63.9677L33.3588 37.7974V37.7974Z" fill="#4997B4"/>
</g>
<defs>
<clipPath id="clip0_840_131">
<rect width="65" height="66" fill="white"/>
</clipPath>
</defs>
</svg>
